<mxfile host="app.diagrams.net" modified="2023-12-07T05:54:07.954Z" agent="Mozilla/5.0 (Windows NT 10.0; Win64; x64) AppleWebKit/537.36 (KHTML, like Gecko) Chrome/119.0.0.0 Safari/537.36" etag="fbu2m9a0gKl5oGC2stBd" version="22.1.7" type="google">
  <diagram name="Page-1" id="DFDt5j4hAfiyts85tzbj">
    <mxGraphModel grid="1" page="1" gridSize="10" guides="1" tooltips="1" connect="1" arrows="1" fold="1" pageScale="1" pageWidth="1400" pageHeight="1700" math="0" shadow="0">
      <root>
        <mxCell id="0" />
        <mxCell id="1" parent="0" />
        <mxCell id="n0eZ3YQ4kbXayGB8iofP-1" value="Permit" style="rounded=0;whiteSpace=wrap;html=1;fillColor=#FFFF99;" vertex="1" parent="1">
          <mxGeometry x="940" y="633.12" width="65" height="30" as="geometry" />
        </mxCell>
        <mxCell id="6mL3hcfkqaH-60hYp9Ra-9" style="edgeStyle=none;shape=connector;rounded=0;orthogonalLoop=1;jettySize=auto;html=1;exitX=0.75;exitY=0;exitDx=0;exitDy=0;entryX=0;entryY=0.5;entryDx=0;entryDy=0;labelBackgroundColor=default;strokeColor=default;align=center;verticalAlign=middle;fontFamily=Helvetica;fontSize=11;fontColor=default;endArrow=none;endFill=0;" edge="1" parent="1" source="V0jLRe1Iar0bfor6HaaD-1" target="6mL3hcfkqaH-60hYp9Ra-8">
          <mxGeometry relative="1" as="geometry" />
        </mxCell>
        <mxCell id="6mL3hcfkqaH-60hYp9Ra-16" value="(1,1)" style="edgeLabel;html=1;align=center;verticalAlign=middle;resizable=0;points=[];fontSize=11;fontFamily=Helvetica;fontColor=default;" connectable="0" vertex="1" parent="6mL3hcfkqaH-60hYp9Ra-9">
          <mxGeometry x="0.0823" relative="1" as="geometry">
            <mxPoint as="offset" />
          </mxGeometry>
        </mxCell>
        <mxCell id="V0jLRe1Iar0bfor6HaaD-1" value="Project&amp;nbsp;" style="rounded=0;whiteSpace=wrap;html=1;fillColor=#FFFF99;" vertex="1" parent="1">
          <mxGeometry x="580" y="535.62" width="140" height="60" as="geometry" />
        </mxCell>
        <mxCell id="V0jLRe1Iar0bfor6HaaD-4" value="Inspection Record" style="rounded=0;whiteSpace=wrap;html=1;fillColor=#99FFFF;" vertex="1" parent="1">
          <mxGeometry x="1070" y="775" width="110" height="25" as="geometry" />
        </mxCell>
        <mxCell id="B8XEB3wURoFLUdZ86-zd-5" style="edgeStyle=none;shape=connector;rounded=0;orthogonalLoop=1;jettySize=auto;html=1;exitX=0.5;exitY=0;exitDx=0;exitDy=0;entryX=0;entryY=0;entryDx=0;entryDy=0;labelBackgroundColor=default;strokeColor=default;fontFamily=Helvetica;fontSize=11;fontColor=default;endArrow=classic;" edge="1" parent="1" source="V0jLRe1Iar0bfor6HaaD-5" target="ytcm5A7RizO1AG_LOwBd-1">
          <mxGeometry relative="1" as="geometry" />
        </mxCell>
        <mxCell id="V0jLRe1Iar0bfor6HaaD-5" value="Resurfacing" style="rounded=0;whiteSpace=wrap;html=1;fillColor=#99FFFF;" vertex="1" parent="1">
          <mxGeometry x="780" y="221.87" width="80" height="35" as="geometry" />
        </mxCell>
        <mxCell id="B8XEB3wURoFLUdZ86-zd-4" style="rounded=0;orthogonalLoop=1;jettySize=auto;html=1;exitX=0.5;exitY=0;exitDx=0;exitDy=0;entryX=1;entryY=0;entryDx=0;entryDy=0;" edge="1" parent="1" source="V0jLRe1Iar0bfor6HaaD-6" target="ytcm5A7RizO1AG_LOwBd-1">
          <mxGeometry relative="1" as="geometry">
            <mxPoint x="845.5" y="320.62" as="targetPoint" />
          </mxGeometry>
        </mxCell>
        <mxCell id="V0jLRe1Iar0bfor6HaaD-6" value="Repair" style="rounded=0;whiteSpace=wrap;html=1;fillColor=#99FFFF;" vertex="1" parent="1">
          <mxGeometry x="880" y="221.87" width="60" height="30" as="geometry" />
        </mxCell>
        <mxCell id="V0jLRe1Iar0bfor6HaaD-7" value="Paving" style="rounded=0;whiteSpace=wrap;html=1;fillColor=#99FFFF;" vertex="1" parent="1">
          <mxGeometry x="880" y="280.62" width="70" height="30" as="geometry" />
        </mxCell>
        <mxCell id="V0jLRe1Iar0bfor6HaaD-8" value="Machinery" style="rounded=0;whiteSpace=wrap;html=1;fillColor=#FFFF99;" vertex="1" parent="1">
          <mxGeometry x="-29.92" y="165" width="90" height="25" as="geometry" />
        </mxCell>
        <mxCell id="B8XEB3wURoFLUdZ86-zd-48" style="shape=connector;rounded=0;orthogonalLoop=1;jettySize=auto;html=1;exitX=1;exitY=0.5;exitDx=0;exitDy=0;labelBackgroundColor=default;strokeColor=default;fontFamily=Helvetica;fontSize=11;fontColor=default;endArrow=none;endFill=0;entryX=0;entryY=0.5;entryDx=0;entryDy=0;" edge="1" parent="1" source="B8XEB3wURoFLUdZ86-zd-47" target="V0jLRe1Iar0bfor6HaaD-11">
          <mxGeometry relative="1" as="geometry">
            <mxPoint x="1120.5" y="324.85" as="sourcePoint" />
            <mxPoint x="1195.5" y="320.62" as="targetPoint" />
          </mxGeometry>
        </mxCell>
        <mxCell id="XhkTKOobNBqWBhGaZhEt-12" value="(1, N)" style="edgeLabel;html=1;align=center;verticalAlign=middle;resizable=0;points=[];fontSize=11;fontFamily=Helvetica;fontColor=default;" connectable="0" vertex="1" parent="B8XEB3wURoFLUdZ86-zd-48">
          <mxGeometry x="0.0302" y="-1" relative="1" as="geometry">
            <mxPoint as="offset" />
          </mxGeometry>
        </mxCell>
        <mxCell id="6mL3hcfkqaH-60hYp9Ra-35" style="edgeStyle=orthogonalEdgeStyle;shape=connector;rounded=0;orthogonalLoop=1;jettySize=auto;html=1;exitX=0.75;exitY=1;exitDx=0;exitDy=0;entryX=0.5;entryY=0;entryDx=0;entryDy=0;labelBackgroundColor=default;strokeColor=default;align=center;verticalAlign=middle;fontFamily=Helvetica;fontSize=11;fontColor=default;endArrow=none;endFill=0;" edge="1" parent="1" source="V0jLRe1Iar0bfor6HaaD-11" target="6mL3hcfkqaH-60hYp9Ra-43">
          <mxGeometry relative="1" as="geometry" />
        </mxCell>
        <mxCell id="6mL3hcfkqaH-60hYp9Ra-46" value="(1,N)" style="edgeLabel;html=1;align=center;verticalAlign=middle;resizable=0;points=[];fontSize=11;fontFamily=Helvetica;fontColor=default;" connectable="0" vertex="1" parent="6mL3hcfkqaH-60hYp9Ra-35">
          <mxGeometry x="0.2083" y="1" relative="1" as="geometry">
            <mxPoint as="offset" />
          </mxGeometry>
        </mxCell>
        <mxCell id="V0jLRe1Iar0bfor6HaaD-11" value="Client" style="rounded=0;whiteSpace=wrap;html=1;fillColor=#FFFF99;" vertex="1" parent="1">
          <mxGeometry x="1263" y="320.62" width="82.5" height="30" as="geometry" />
        </mxCell>
        <mxCell id="6mL3hcfkqaH-60hYp9Ra-19" style="edgeStyle=none;shape=connector;rounded=0;orthogonalLoop=1;jettySize=auto;html=1;labelBackgroundColor=default;strokeColor=default;align=center;verticalAlign=middle;fontFamily=Helvetica;fontSize=11;fontColor=default;endArrow=none;endFill=0;" edge="1" parent="1" source="V0jLRe1Iar0bfor6HaaD-12" target="6mL3hcfkqaH-60hYp9Ra-18">
          <mxGeometry relative="1" as="geometry" />
        </mxCell>
        <mxCell id="6mL3hcfkqaH-60hYp9Ra-21" value="(1, 1)" style="edgeLabel;html=1;align=center;verticalAlign=middle;resizable=0;points=[];fontSize=11;fontFamily=Helvetica;fontColor=default;" connectable="0" vertex="1" parent="6mL3hcfkqaH-60hYp9Ra-19">
          <mxGeometry x="-0.0299" y="-2" relative="1" as="geometry">
            <mxPoint y="1" as="offset" />
          </mxGeometry>
        </mxCell>
        <mxCell id="V0jLRe1Iar0bfor6HaaD-12" value="Bid" style="rounded=0;whiteSpace=wrap;html=1;fillColor=#FFFF99;" vertex="1" parent="1">
          <mxGeometry x="800" y="10" width="80" height="30" as="geometry" />
        </mxCell>
        <mxCell id="V0jLRe1Iar0bfor6HaaD-13" value="Maintenance" style="rounded=0;whiteSpace=wrap;html=1;fillColor=#99FFFF;" vertex="1" parent="1">
          <mxGeometry x="695" y="251.87" width="80" height="30" as="geometry" />
        </mxCell>
        <mxCell id="B8XEB3wURoFLUdZ86-zd-32" style="edgeStyle=none;shape=connector;rounded=0;orthogonalLoop=1;jettySize=auto;html=1;exitX=1;exitY=0.5;exitDx=0;exitDy=0;entryX=0;entryY=0.5;entryDx=0;entryDy=0;labelBackgroundColor=default;strokeColor=default;fontFamily=Helvetica;fontSize=11;fontColor=default;endArrow=none;endFill=0;" edge="1" parent="1" source="V0jLRe1Iar0bfor6HaaD-2" target="B8XEB3wURoFLUdZ86-zd-30">
          <mxGeometry relative="1" as="geometry" />
        </mxCell>
        <mxCell id="ytcm5A7RizO1AG_LOwBd-53" value="(0, 1)" style="edgeLabel;html=1;align=center;verticalAlign=middle;resizable=0;points=[];" connectable="0" vertex="1" parent="B8XEB3wURoFLUdZ86-zd-32">
          <mxGeometry x="-0.0743" y="-1" relative="1" as="geometry">
            <mxPoint as="offset" />
          </mxGeometry>
        </mxCell>
        <mxCell id="B8XEB3wURoFLUdZ86-zd-41" style="edgeStyle=none;shape=connector;rounded=0;orthogonalLoop=1;jettySize=auto;html=1;exitX=0;exitY=0.25;exitDx=0;exitDy=0;entryX=0.5;entryY=1;entryDx=0;entryDy=0;labelBackgroundColor=default;strokeColor=default;fontFamily=Helvetica;fontSize=11;fontColor=default;endArrow=none;endFill=0;" edge="1" parent="1" source="V0jLRe1Iar0bfor6HaaD-15" target="5PxoHh6JgG6SZzD1afo6-5">
          <mxGeometry relative="1" as="geometry">
            <mxPoint x="242.5000000000001" y="753.27" as="sourcePoint" />
          </mxGeometry>
        </mxCell>
        <mxCell id="B8XEB3wURoFLUdZ86-zd-42" value="(1,N)" style="edgeLabel;html=1;align=center;verticalAlign=middle;resizable=0;points=[];fontSize=11;fontFamily=Helvetica;fontColor=default;" vertex="1" connectable="0" parent="B8XEB3wURoFLUdZ86-zd-41">
          <mxGeometry x="0.0762" y="1" relative="1" as="geometry">
            <mxPoint as="offset" />
          </mxGeometry>
        </mxCell>
        <mxCell id="5PxoHh6JgG6SZzD1afo6-18" style="edgeStyle=orthogonalEdgeStyle;rounded=0;orthogonalLoop=1;jettySize=auto;html=1;exitX=0.5;exitY=1;exitDx=0;exitDy=0;endArrow=none;endFill=0;entryX=0.5;entryY=0;entryDx=0;entryDy=0;" edge="1" parent="1" source="V0jLRe1Iar0bfor6HaaD-15" target="5PxoHh6JgG6SZzD1afo6-19">
          <mxGeometry relative="1" as="geometry">
            <mxPoint x="150" y="885.32" as="targetPoint" />
            <mxPoint x="215" y="715.6200000000001" as="sourcePoint" />
            <Array as="points">
              <mxPoint x="310" y="858" />
              <mxPoint x="310" y="941" />
              <mxPoint x="325" y="941" />
              <mxPoint x="325" y="903" />
            </Array>
          </mxGeometry>
        </mxCell>
        <mxCell id="XZvsRH1rKc_Uf9_lsDH9-35" value="(0,N)" style="edgeLabel;html=1;align=center;verticalAlign=middle;resizable=0;points=[];" connectable="0" vertex="1" parent="5PxoHh6JgG6SZzD1afo6-18">
          <mxGeometry x="0.1464" y="2" relative="1" as="geometry">
            <mxPoint x="-13" as="offset" />
          </mxGeometry>
        </mxCell>
        <mxCell id="V0jLRe1Iar0bfor6HaaD-15" value="Supplier" style="rounded=0;whiteSpace=wrap;html=1;fillColor=#FFFF99;" vertex="1" parent="1">
          <mxGeometry x="280" y="812.5" width="90" height="45" as="geometry" />
        </mxCell>
        <mxCell id="V0jLRe1Iar0bfor6HaaD-17" value="Advertisement" style="rounded=0;whiteSpace=wrap;html=1;direction=west;fillColor=#FFFF99;" vertex="1" parent="1">
          <mxGeometry x="377.5" y="241.87" width="85" height="30" as="geometry" />
        </mxCell>
        <mxCell id="B8XEB3wURoFLUdZ86-zd-62" style="edgeStyle=none;shape=connector;rounded=0;orthogonalLoop=1;jettySize=auto;html=1;entryX=0.5;entryY=0;entryDx=0;entryDy=0;labelBackgroundColor=default;strokeColor=default;fontFamily=Helvetica;fontSize=11;fontColor=default;endArrow=none;endFill=0;" edge="1" parent="1" source="V0jLRe1Iar0bfor6HaaD-19" target="B8XEB3wURoFLUdZ86-zd-61">
          <mxGeometry relative="1" as="geometry" />
        </mxCell>
        <mxCell id="B8XEB3wURoFLUdZ86-zd-65" value="(0,N)" style="edgeLabel;html=1;align=center;verticalAlign=middle;resizable=0;points=[];fontSize=11;fontFamily=Helvetica;fontColor=default;" vertex="1" connectable="0" parent="B8XEB3wURoFLUdZ86-zd-62">
          <mxGeometry x="0.0782" y="2" relative="1" as="geometry">
            <mxPoint x="-12" y="-5" as="offset" />
          </mxGeometry>
        </mxCell>
        <mxCell id="6mL3hcfkqaH-60hYp9Ra-24" style="edgeStyle=none;shape=connector;rounded=0;orthogonalLoop=1;jettySize=auto;html=1;labelBackgroundColor=default;strokeColor=default;align=center;verticalAlign=middle;fontFamily=Helvetica;fontSize=11;fontColor=default;endArrow=none;endFill=0;exitX=0.75;exitY=0;exitDx=0;exitDy=0;" edge="1" parent="1" source="V0jLRe1Iar0bfor6HaaD-19" target="6mL3hcfkqaH-60hYp9Ra-23">
          <mxGeometry relative="1" as="geometry">
            <mxPoint x="353" y="20" as="sourcePoint" />
            <Array as="points">
              <mxPoint x="510" y="300" />
            </Array>
          </mxGeometry>
        </mxCell>
        <mxCell id="6mL3hcfkqaH-60hYp9Ra-26" value="(0, N)" style="edgeLabel;html=1;align=center;verticalAlign=middle;resizable=0;points=[];fontSize=11;fontFamily=Helvetica;fontColor=default;" connectable="0" vertex="1" parent="6mL3hcfkqaH-60hYp9Ra-24">
          <mxGeometry x="0.145" y="-1" relative="1" as="geometry">
            <mxPoint as="offset" />
          </mxGeometry>
        </mxCell>
        <mxCell id="V0jLRe1Iar0bfor6HaaD-19" value="Employee" style="rounded=0;whiteSpace=wrap;html=1;fillColor=#FFFF99;" vertex="1" parent="1">
          <mxGeometry x="250" y="443.12" width="110" height="40" as="geometry" />
        </mxCell>
        <mxCell id="V0jLRe1Iar0bfor6HaaD-20" value="Employee Error Record" style="rounded=0;whiteSpace=wrap;html=1;fillColor=#FFFF99;" vertex="1" parent="1">
          <mxGeometry x="230" y="250.62" width="100" height="40" as="geometry" />
        </mxCell>
        <mxCell id="V0jLRe1Iar0bfor6HaaD-21" value="Invoice" style="rounded=0;whiteSpace=wrap;html=1;fillColor=#FFFF99;" vertex="1" parent="1">
          <mxGeometry x="314.5" y="663.12" width="90" height="40" as="geometry" />
        </mxCell>
        <mxCell id="V0jLRe1Iar0bfor6HaaD-23" value="Safety Record" style="rounded=0;whiteSpace=wrap;html=1;fillColor=#99FFFF;" vertex="1" parent="1">
          <mxGeometry x="1070" y="690.62" width="100" height="30" as="geometry" />
        </mxCell>
        <mxCell id="6mL3hcfkqaH-60hYp9Ra-13" style="edgeStyle=none;shape=connector;rounded=0;orthogonalLoop=1;jettySize=auto;html=1;exitX=0;exitY=1;exitDx=0;exitDy=0;entryX=0;entryY=0.5;entryDx=0;entryDy=0;labelBackgroundColor=default;strokeColor=default;align=center;verticalAlign=middle;fontFamily=Helvetica;fontSize=11;fontColor=default;endArrow=classic;endFill=1;" edge="1" parent="1" source="ytcm5A7RizO1AG_LOwBd-1" target="6mL3hcfkqaH-60hYp9Ra-4">
          <mxGeometry relative="1" as="geometry" />
        </mxCell>
        <mxCell id="ytcm5A7RizO1AG_LOwBd-1" value="d,t" style="ellipse;whiteSpace=wrap;html=1;align=center;" vertex="1" parent="1">
          <mxGeometry x="810" y="306.24" width="30" height="30" as="geometry" />
        </mxCell>
        <mxCell id="ytcm5A7RizO1AG_LOwBd-4" value="" style="endArrow=classic;html=1;rounded=0;exitX=0.75;exitY=1;exitDx=0;exitDy=0;entryX=-0.027;entryY=0.296;entryDx=0;entryDy=0;entryPerimeter=0;" edge="1" parent="1" source="V0jLRe1Iar0bfor6HaaD-13" target="ytcm5A7RizO1AG_LOwBd-1">
          <mxGeometry width="50" height="50" relative="1" as="geometry">
            <mxPoint x="810.5" y="230.62" as="sourcePoint" />
            <mxPoint x="860.5" y="180.62" as="targetPoint" />
          </mxGeometry>
        </mxCell>
        <mxCell id="ytcm5A7RizO1AG_LOwBd-5" value="" style="endArrow=classic;html=1;rounded=0;exitX=-0.008;exitY=0.367;exitDx=0;exitDy=0;entryX=1;entryY=0.5;entryDx=0;entryDy=0;exitPerimeter=0;" edge="1" parent="1" source="V0jLRe1Iar0bfor6HaaD-7" target="ytcm5A7RizO1AG_LOwBd-1">
          <mxGeometry width="50" height="50" relative="1" as="geometry">
            <mxPoint x="760.5" y="330.62" as="sourcePoint" />
            <mxPoint x="840.5" y="315.62" as="targetPoint" />
          </mxGeometry>
        </mxCell>
        <mxCell id="B8XEB3wURoFLUdZ86-zd-9" style="edgeStyle=none;shape=connector;rounded=0;orthogonalLoop=1;jettySize=auto;html=1;labelBackgroundColor=default;strokeColor=default;fontFamily=Helvetica;fontSize=11;fontColor=default;endArrow=none;endFill=0;entryX=1;entryY=0;entryDx=0;entryDy=0;exitX=0;exitY=0.5;exitDx=0;exitDy=0;" edge="1" parent="1" source="V0jLRe1Iar0bfor6HaaD-27" target="m66RHuCAahKeRWMkVwcQ-6">
          <mxGeometry relative="1" as="geometry">
            <mxPoint x="1050" y="440" as="targetPoint" />
            <mxPoint x="1120" y="400" as="sourcePoint" />
          </mxGeometry>
        </mxCell>
        <mxCell id="FUosIUZP7nKcz937otOu-28" value="(1,N)" style="edgeLabel;html=1;align=center;verticalAlign=middle;resizable=0;points=[];" connectable="0" vertex="1" parent="B8XEB3wURoFLUdZ86-zd-9">
          <mxGeometry x="-0.092" y="1" relative="1" as="geometry">
            <mxPoint x="-8" y="-1" as="offset" />
          </mxGeometry>
        </mxCell>
        <mxCell id="B8XEB3wURoFLUdZ86-zd-10" style="edgeStyle=none;shape=connector;rounded=0;orthogonalLoop=1;jettySize=auto;html=1;exitX=1;exitY=0.5;exitDx=0;exitDy=0;entryX=0;entryY=1;entryDx=0;entryDy=0;labelBackgroundColor=default;strokeColor=default;fontFamily=Helvetica;fontSize=11;fontColor=default;endArrow=none;endFill=0;" edge="1" parent="1" source="V0jLRe1Iar0bfor6HaaD-27" target="V0jLRe1Iar0bfor6HaaD-11">
          <mxGeometry relative="1" as="geometry">
            <Array as="points" />
          </mxGeometry>
        </mxCell>
        <mxCell id="FUosIUZP7nKcz937otOu-27" value="(0,N)" style="edgeLabel;html=1;align=center;verticalAlign=middle;resizable=0;points=[];" connectable="0" vertex="1" parent="B8XEB3wURoFLUdZ86-zd-10">
          <mxGeometry x="-0.1474" y="1" relative="1" as="geometry">
            <mxPoint as="offset" />
          </mxGeometry>
        </mxCell>
        <mxCell id="V0jLRe1Iar0bfor6HaaD-27" value="Files" style="rhombus;whiteSpace=wrap;html=1;" vertex="1" parent="1">
          <mxGeometry x="1109.75" y="355.62" width="80" height="50" as="geometry" />
        </mxCell>
        <mxCell id="B8XEB3wURoFLUdZ86-zd-3" style="edgeStyle=orthogonalEdgeStyle;rounded=0;orthogonalLoop=1;jettySize=auto;html=1;exitX=0.5;exitY=1;exitDx=0;exitDy=0;" edge="1" parent="1">
          <mxGeometry relative="1" as="geometry">
            <mxPoint x="1008" y="412.0200000000001" as="sourcePoint" />
            <mxPoint x="1008" y="412.0200000000001" as="targetPoint" />
          </mxGeometry>
        </mxCell>
        <mxCell id="V0jLRe1Iar0bfor6HaaD-32" value="" style="endArrow=none;html=1;rounded=0;exitX=1;exitY=0.5;exitDx=0;exitDy=0;entryX=0;entryY=1;entryDx=0;entryDy=0;" edge="1" parent="1" source="ytcm5A7RizO1AG_LOwBd-8" target="V0jLRe1Iar0bfor6HaaD-1">
          <mxGeometry width="50" height="50" relative="1" as="geometry">
            <mxPoint x="519.72" y="656.87" as="sourcePoint" />
            <mxPoint x="579.72" y="656.8699999999999" as="targetPoint" />
          </mxGeometry>
        </mxCell>
        <mxCell id="XZvsRH1rKc_Uf9_lsDH9-5" value="(1,N)" style="edgeLabel;html=1;align=center;verticalAlign=middle;resizable=0;points=[];" connectable="0" vertex="1" parent="V0jLRe1Iar0bfor6HaaD-32">
          <mxGeometry x="-0.0107" y="1" relative="1" as="geometry">
            <mxPoint as="offset" />
          </mxGeometry>
        </mxCell>
        <mxCell id="ytcm5A7RizO1AG_LOwBd-8" value="provides materials" style="shape=rhombus;perimeter=rhombusPerimeter;whiteSpace=wrap;html=1;align=center;" vertex="1" parent="1">
          <mxGeometry x="464.72" y="720.62" width="95" height="50" as="geometry" />
        </mxCell>
        <mxCell id="ytcm5A7RizO1AG_LOwBd-11" value="" style="endArrow=none;html=1;rounded=0;exitX=0;exitY=0.5;exitDx=0;exitDy=0;entryX=1;entryY=0.25;entryDx=0;entryDy=0;" edge="1" parent="1" source="ytcm5A7RizO1AG_LOwBd-8" target="V0jLRe1Iar0bfor6HaaD-15">
          <mxGeometry width="50" height="50" relative="1" as="geometry">
            <mxPoint x="550" y="630.62" as="sourcePoint" />
            <mxPoint x="586" y="589.62" as="targetPoint" />
          </mxGeometry>
        </mxCell>
        <mxCell id="5PxoHh6JgG6SZzD1afo6-12" value="(1,N)" style="edgeLabel;html=1;align=center;verticalAlign=middle;resizable=0;points=[];fontSize=12;" connectable="0" vertex="1" parent="ytcm5A7RizO1AG_LOwBd-11">
          <mxGeometry x="0.0738" relative="1" as="geometry">
            <mxPoint as="offset" />
          </mxGeometry>
        </mxCell>
        <mxCell id="5PxoHh6JgG6SZzD1afo6-2" value="" style="edgeStyle=orthogonalEdgeStyle;rounded=0;orthogonalLoop=1;jettySize=auto;html=1;entryX=0;entryY=0;entryDx=0;entryDy=0;" edge="1" parent="1" source="5PxoHh6JgG6SZzD1afo6-1" target="V0jLRe1Iar0bfor6HaaD-19">
          <mxGeometry relative="1" as="geometry" />
        </mxCell>
        <mxCell id="5PxoHh6JgG6SZzD1afo6-1" value="o,p" style="ellipse;whiteSpace=wrap;html=1;aspect=fixed;" vertex="1" parent="1">
          <mxGeometry x="180" y="405.62" width="30" height="30" as="geometry" />
        </mxCell>
        <mxCell id="ytcm5A7RizO1AG_LOwBd-12" value="in charge of" style="shape=rhombus;perimeter=rhombusPerimeter;whiteSpace=wrap;html=1;align=center;" vertex="1" parent="1">
          <mxGeometry x="340" y="555.62" width="100" height="40" as="geometry" />
        </mxCell>
        <mxCell id="ytcm5A7RizO1AG_LOwBd-14" value="" style="endArrow=none;html=1;rounded=0;exitX=1;exitY=0.5;exitDx=0;exitDy=0;entryX=0;entryY=0.25;entryDx=0;entryDy=0;" edge="1" parent="1" source="ytcm5A7RizO1AG_LOwBd-12" target="V0jLRe1Iar0bfor6HaaD-1">
          <mxGeometry relative="1" as="geometry">
            <mxPoint x="490" y="485.62" as="sourcePoint" />
            <mxPoint x="650" y="485.62" as="targetPoint" />
          </mxGeometry>
        </mxCell>
        <mxCell id="ytcm5A7RizO1AG_LOwBd-22" value="(1, 1)" style="edgeLabel;html=1;align=center;verticalAlign=middle;resizable=0;points=[];fontSize=12;" connectable="0" vertex="1" parent="ytcm5A7RizO1AG_LOwBd-14">
          <mxGeometry x="0.0353" y="2" relative="1" as="geometry">
            <mxPoint as="offset" />
          </mxGeometry>
        </mxCell>
        <mxCell id="3CGyiVarhpInRkeTOOhV-2" value="Machine Operator" style="rounded=0;whiteSpace=wrap;html=1;fillColor=#66FFFF;" vertex="1" parent="1">
          <mxGeometry x="10.079999999999998" y="340.93" width="80" height="30" as="geometry" />
        </mxCell>
        <mxCell id="5PxoHh6JgG6SZzD1afo6-10" value="" style="endArrow=none;html=1;rounded=0;entryX=0.5;entryY=0;entryDx=0;entryDy=0;" edge="1" parent="1" source="V0jLRe1Iar0bfor6HaaD-2" target="5PxoHh6JgG6SZzD1afo6-5">
          <mxGeometry width="50" height="50" relative="1" as="geometry">
            <mxPoint x="42.58" y="513.27" as="sourcePoint" />
            <mxPoint x="92.58" y="463.27" as="targetPoint" />
          </mxGeometry>
        </mxCell>
        <mxCell id="B8XEB3wURoFLUdZ86-zd-38" value="(1,1)" style="edgeLabel;html=1;align=center;verticalAlign=middle;resizable=0;points=[];fontSize=11;fontFamily=Helvetica;fontColor=default;" vertex="1" connectable="0" parent="5PxoHh6JgG6SZzD1afo6-10">
          <mxGeometry x="0.08" relative="1" as="geometry">
            <mxPoint as="offset" />
          </mxGeometry>
        </mxCell>
        <mxCell id="Qv7zX6T9AX3nA331XIr3-2" value="Creates" style="rhombus;whiteSpace=wrap;html=1;" vertex="1" parent="1">
          <mxGeometry x="270" y="365.62" width="70" height="40" as="geometry" />
        </mxCell>
        <mxCell id="3CGyiVarhpInRkeTOOhV-4" value="Supervisor" style="rounded=0;whiteSpace=wrap;html=1;fillColor=#66FFFF;" vertex="1" parent="1">
          <mxGeometry x="20" y="405.62" width="80" height="30" as="geometry" />
        </mxCell>
        <mxCell id="3CGyiVarhpInRkeTOOhV-7" value="" style="endArrow=classic;html=1;rounded=0;" edge="1" parent="1" source="3CGyiVarhpInRkeTOOhV-3" target="5PxoHh6JgG6SZzD1afo6-1">
          <mxGeometry width="50" height="50" relative="1" as="geometry">
            <mxPoint x="400" y="595.62" as="sourcePoint" />
            <mxPoint x="450" y="545.62" as="targetPoint" />
          </mxGeometry>
        </mxCell>
        <mxCell id="n0eZ3YQ4kbXayGB8iofP-10" value="" style="endArrow=none;html=1;rounded=0;entryX=1;entryY=0.75;entryDx=0;entryDy=0;exitX=0;exitY=0.5;exitDx=0;exitDy=0;" edge="1" parent="1" source="B8XEB3wURoFLUdZ86-zd-50" target="V0jLRe1Iar0bfor6HaaD-1">
          <mxGeometry relative="1" as="geometry">
            <mxPoint x="750" y="475.62" as="sourcePoint" />
            <mxPoint x="670" y="555.62" as="targetPoint" />
          </mxGeometry>
        </mxCell>
        <mxCell id="XZvsRH1rKc_Uf9_lsDH9-4" value="(1,1)" style="edgeLabel;html=1;align=center;verticalAlign=middle;resizable=0;points=[];" connectable="0" vertex="1" parent="n0eZ3YQ4kbXayGB8iofP-10">
          <mxGeometry x="-0.0783" relative="1" as="geometry">
            <mxPoint as="offset" />
          </mxGeometry>
        </mxCell>
        <mxCell id="3CGyiVarhpInRkeTOOhV-9" value="" style="endArrow=none;html=1;rounded=0;exitX=0.5;exitY=0;exitDx=0;exitDy=0;entryX=0.5;entryY=1;entryDx=0;entryDy=0;" edge="1" parent="1" source="Qv7zX6T9AX3nA331XIr3-2" target="V0jLRe1Iar0bfor6HaaD-20">
          <mxGeometry width="50" height="50" relative="1" as="geometry">
            <mxPoint x="400" y="495.62" as="sourcePoint" />
            <mxPoint x="450" y="445.62" as="targetPoint" />
          </mxGeometry>
        </mxCell>
        <mxCell id="3CGyiVarhpInRkeTOOhV-15" value="&lt;font style=&quot;font-size: 12px;&quot;&gt;(1,N)&lt;/font&gt;" style="edgeLabel;html=1;align=center;verticalAlign=middle;resizable=0;points=[];" connectable="0" vertex="1" parent="3CGyiVarhpInRkeTOOhV-9">
          <mxGeometry x="-0.1006" y="-1" relative="1" as="geometry">
            <mxPoint as="offset" />
          </mxGeometry>
        </mxCell>
        <mxCell id="n0eZ3YQ4kbXayGB8iofP-11" value="" style="endArrow=none;html=1;rounded=0;exitX=1;exitY=0.5;exitDx=0;exitDy=0;entryX=0;entryY=0.5;entryDx=0;entryDy=0;" edge="1" parent="1" source="V0jLRe1Iar0bfor6HaaD-12" target="B8XEB3wURoFLUdZ86-zd-47">
          <mxGeometry relative="1" as="geometry">
            <mxPoint x="950.5" y="353.12" as="sourcePoint" />
            <mxPoint x="1075.5" y="320.62" as="targetPoint" />
          </mxGeometry>
        </mxCell>
        <mxCell id="XZvsRH1rKc_Uf9_lsDH9-6" value="(1,1)" style="edgeLabel;html=1;align=center;verticalAlign=middle;resizable=0;points=[];" connectable="0" vertex="1" parent="n0eZ3YQ4kbXayGB8iofP-11">
          <mxGeometry x="0.0531" y="-1" relative="1" as="geometry">
            <mxPoint as="offset" />
          </mxGeometry>
        </mxCell>
        <mxCell id="ytcm5A7RizO1AG_LOwBd-18" value="filed for" style="shape=rhombus;perimeter=rhombusPerimeter;whiteSpace=wrap;html=1;align=center;" vertex="1" parent="1">
          <mxGeometry x="800" y="633.12" width="70" height="42.5" as="geometry" />
        </mxCell>
        <mxCell id="V0jLRe1Iar0bfor6HaaD-2" value="Purchase Order" style="rounded=0;whiteSpace=wrap;html=1;fillColor=#FFFF99;" vertex="1" parent="1">
          <mxGeometry x="10.079999999999998" y="595.62" width="90" height="40" as="geometry" />
        </mxCell>
        <mxCell id="ytcm5A7RizO1AG_LOwBd-20" value="" style="endArrow=none;html=1;rounded=0;exitX=0;exitY=0.5;exitDx=0;exitDy=0;entryX=1;entryY=0.5;entryDx=0;entryDy=0;" edge="1" parent="1" source="n0eZ3YQ4kbXayGB8iofP-1" target="ytcm5A7RizO1AG_LOwBd-18">
          <mxGeometry relative="1" as="geometry">
            <mxPoint x="670" y="670.62" as="sourcePoint" />
            <mxPoint x="710" y="678.62" as="targetPoint" />
          </mxGeometry>
        </mxCell>
        <mxCell id="FUosIUZP7nKcz937otOu-26" value="(1,N)" style="edgeLabel;html=1;align=center;verticalAlign=middle;resizable=0;points=[];" connectable="0" vertex="1" parent="ytcm5A7RizO1AG_LOwBd-20">
          <mxGeometry x="-0.0892" y="-1" relative="1" as="geometry">
            <mxPoint as="offset" />
          </mxGeometry>
        </mxCell>
        <mxCell id="ytcm5A7RizO1AG_LOwBd-26" value="Report" style="whiteSpace=wrap;html=1;align=center;fillColor=#FFFF99;" vertex="1" parent="1">
          <mxGeometry x="870" y="690.62" width="60" height="20" as="geometry" />
        </mxCell>
        <mxCell id="ytcm5A7RizO1AG_LOwBd-28" value="describes" style="shape=rhombus;perimeter=rhombusPerimeter;whiteSpace=wrap;html=1;align=center;" vertex="1" parent="1">
          <mxGeometry x="740" y="663.12" width="80" height="37.5" as="geometry" />
        </mxCell>
        <mxCell id="ytcm5A7RizO1AG_LOwBd-30" value="" style="endArrow=none;html=1;rounded=0;exitX=0;exitY=0.5;exitDx=0;exitDy=0;entryX=1;entryY=0.5;entryDx=0;entryDy=0;" edge="1" parent="1" source="ytcm5A7RizO1AG_LOwBd-26" target="ytcm5A7RizO1AG_LOwBd-28">
          <mxGeometry relative="1" as="geometry">
            <mxPoint x="589.5" y="716.27" as="sourcePoint" />
            <mxPoint x="607.5" y="774.27" as="targetPoint" />
          </mxGeometry>
        </mxCell>
        <mxCell id="B8XEB3wURoFLUdZ86-zd-37" value="(1,1)" style="edgeLabel;html=1;align=center;verticalAlign=middle;resizable=0;points=[];fontSize=11;fontFamily=Helvetica;fontColor=default;" vertex="1" connectable="0" parent="ytcm5A7RizO1AG_LOwBd-30">
          <mxGeometry x="0.1054" relative="1" as="geometry">
            <mxPoint as="offset" />
          </mxGeometry>
        </mxCell>
        <mxCell id="ytcm5A7RizO1AG_LOwBd-32" value="" style="endArrow=classic;html=1;rounded=0;exitX=0;exitY=0.5;exitDx=0;exitDy=0;entryX=1;entryY=0;entryDx=0;entryDy=0;" edge="1" parent="1" source="V0jLRe1Iar0bfor6HaaD-23" target="ytcm5A7RizO1AG_LOwBd-31">
          <mxGeometry width="50" height="50" relative="1" as="geometry">
            <mxPoint x="794.5" y="811" as="sourcePoint" />
            <mxPoint x="721.5" y="771" as="targetPoint" />
          </mxGeometry>
        </mxCell>
        <mxCell id="ytcm5A7RizO1AG_LOwBd-33" value="" style="endArrow=classic;html=1;rounded=0;exitX=0;exitY=0.5;exitDx=0;exitDy=0;entryX=1;entryY=1;entryDx=0;entryDy=0;" edge="1" parent="1" source="V0jLRe1Iar0bfor6HaaD-4" target="ytcm5A7RizO1AG_LOwBd-31">
          <mxGeometry width="50" height="50" relative="1" as="geometry">
            <mxPoint x="1055.5" y="775" as="sourcePoint" />
            <mxPoint x="1031.5" y="789" as="targetPoint" />
          </mxGeometry>
        </mxCell>
        <mxCell id="ytcm5A7RizO1AG_LOwBd-34" value="" style="endArrow=classic;html=1;rounded=0;exitX=0;exitY=0;exitDx=0;exitDy=0;entryX=1;entryY=0.75;entryDx=0;entryDy=0;" edge="1" parent="1" source="ytcm5A7RizO1AG_LOwBd-31" target="ytcm5A7RizO1AG_LOwBd-26">
          <mxGeometry width="50" height="50" relative="1" as="geometry">
            <mxPoint x="877.5" y="900.65" as="sourcePoint" />
            <mxPoint x="930" y="669.9999999999999" as="targetPoint" />
          </mxGeometry>
        </mxCell>
        <mxCell id="3CGyiVarhpInRkeTOOhV-8" value="" style="endArrow=none;html=1;rounded=0;exitX=0.5;exitY=0;exitDx=0;exitDy=0;entryX=0.5;entryY=1;entryDx=0;entryDy=0;" edge="1" parent="1" source="V0jLRe1Iar0bfor6HaaD-19" target="Qv7zX6T9AX3nA331XIr3-2">
          <mxGeometry width="50" height="50" relative="1" as="geometry">
            <mxPoint x="400" y="495.62" as="sourcePoint" />
            <mxPoint x="450" y="445.62" as="targetPoint" />
          </mxGeometry>
        </mxCell>
        <mxCell id="3CGyiVarhpInRkeTOOhV-12" value="&lt;font style=&quot;font-size: 12px;&quot;&gt;(0, N)&lt;/font&gt;" style="edgeLabel;html=1;align=center;verticalAlign=middle;resizable=0;points=[];" connectable="0" vertex="1" parent="3CGyiVarhpInRkeTOOhV-8">
          <mxGeometry x="-0.08" relative="1" as="geometry">
            <mxPoint as="offset" />
          </mxGeometry>
        </mxCell>
        <mxCell id="ytcm5A7RizO1AG_LOwBd-19" value="" style="endArrow=none;html=1;rounded=0;entryX=0;entryY=0.5;entryDx=0;entryDy=0;exitX=0.75;exitY=1;exitDx=0;exitDy=0;" edge="1" parent="1" source="V0jLRe1Iar0bfor6HaaD-1" target="ytcm5A7RizO1AG_LOwBd-18">
          <mxGeometry relative="1" as="geometry">
            <mxPoint x="660" y="600.62" as="sourcePoint" />
            <mxPoint x="870" y="690.62" as="targetPoint" />
          </mxGeometry>
        </mxCell>
        <mxCell id="XZvsRH1rKc_Uf9_lsDH9-13" value="(1,N)" style="edgeLabel;html=1;align=center;verticalAlign=middle;resizable=0;points=[];" connectable="0" vertex="1" parent="ytcm5A7RizO1AG_LOwBd-19">
          <mxGeometry x="0.1858" y="-1" relative="1" as="geometry">
            <mxPoint as="offset" />
          </mxGeometry>
        </mxCell>
        <mxCell id="ytcm5A7RizO1AG_LOwBd-15" value="" style="endArrow=none;html=1;rounded=0;exitX=0;exitY=0.5;exitDx=0;exitDy=0;entryX=0.75;entryY=1;entryDx=0;entryDy=0;" edge="1" parent="1" source="ytcm5A7RizO1AG_LOwBd-12" target="V0jLRe1Iar0bfor6HaaD-19">
          <mxGeometry relative="1" as="geometry">
            <mxPoint x="560" y="515.62" as="sourcePoint" />
            <mxPoint x="590" y="565.62" as="targetPoint" />
          </mxGeometry>
        </mxCell>
        <mxCell id="ytcm5A7RizO1AG_LOwBd-23" value="(0, N)" style="edgeLabel;html=1;align=center;verticalAlign=middle;resizable=0;points=[];fontSize=12;" connectable="0" vertex="1" parent="ytcm5A7RizO1AG_LOwBd-15">
          <mxGeometry x="-0.2" relative="1" as="geometry">
            <mxPoint as="offset" />
          </mxGeometry>
        </mxCell>
        <mxCell id="3CGyiVarhpInRkeTOOhV-3" value="Asphalt Layer" style="rounded=0;whiteSpace=wrap;html=1;fillColor=#66FFFF;" vertex="1" parent="1">
          <mxGeometry x="87.53999999999999" y="305.62" width="90" height="30" as="geometry" />
        </mxCell>
        <mxCell id="3CGyiVarhpInRkeTOOhV-5" value="" style="endArrow=classic;html=1;rounded=0;" edge="1" parent="1" source="3CGyiVarhpInRkeTOOhV-2" target="5PxoHh6JgG6SZzD1afo6-1">
          <mxGeometry width="50" height="50" relative="1" as="geometry">
            <mxPoint x="400" y="595.62" as="sourcePoint" />
            <mxPoint x="191" y="528.62" as="targetPoint" />
          </mxGeometry>
        </mxCell>
        <mxCell id="5PxoHh6JgG6SZzD1afo6-5" value="receives" style="rhombus;whiteSpace=wrap;html=1;" vertex="1" parent="1">
          <mxGeometry x="50" y="705.62" width="70" height="40" as="geometry" />
        </mxCell>
        <mxCell id="3CGyiVarhpInRkeTOOhV-21" value="Operates" style="rhombus;whiteSpace=wrap;html=1;" vertex="1" parent="1">
          <mxGeometry x="5.08" y="250.62" width="70" height="40" as="geometry" />
        </mxCell>
        <mxCell id="ytcm5A7RizO1AG_LOwBd-25" value="" style="endArrow=classic;html=1;rounded=0;" edge="1" parent="1" source="3CGyiVarhpInRkeTOOhV-4" target="5PxoHh6JgG6SZzD1afo6-1">
          <mxGeometry width="50" height="50" relative="1" as="geometry">
            <mxPoint x="170" y="645.62" as="sourcePoint" />
            <mxPoint x="220" y="545.62" as="targetPoint" />
          </mxGeometry>
        </mxCell>
        <mxCell id="3CGyiVarhpInRkeTOOhV-22" value="" style="endArrow=none;html=1;rounded=0;" edge="1" parent="1" source="Qv7zX6T9AX3nA331XIr3-10" target="3CGyiVarhpInRkeTOOhV-21">
          <mxGeometry width="50" height="50" relative="1" as="geometry">
            <mxPoint x="400" y="595.62" as="sourcePoint" />
            <mxPoint x="450" y="545.62" as="targetPoint" />
          </mxGeometry>
        </mxCell>
        <mxCell id="3CGyiVarhpInRkeTOOhV-23" value="" style="endArrow=none;html=1;rounded=0;" edge="1" parent="1" source="V0jLRe1Iar0bfor6HaaD-8" target="3CGyiVarhpInRkeTOOhV-21">
          <mxGeometry width="50" height="50" relative="1" as="geometry">
            <mxPoint x="400" y="595.62" as="sourcePoint" />
            <mxPoint x="450" y="545.62" as="targetPoint" />
          </mxGeometry>
        </mxCell>
        <mxCell id="3CGyiVarhpInRkeTOOhV-26" value="&lt;font style=&quot;font-size: 12px;&quot;&gt;(1,N)&lt;/font&gt;" style="edgeLabel;html=1;align=center;verticalAlign=middle;resizable=0;points=[];" connectable="0" vertex="1" parent="3CGyiVarhpInRkeTOOhV-23">
          <mxGeometry x="-0.1141" y="-4" relative="1" as="geometry">
            <mxPoint as="offset" />
          </mxGeometry>
        </mxCell>
        <mxCell id="ytcm5A7RizO1AG_LOwBd-29" value="" style="endArrow=none;html=1;rounded=0;exitX=0.75;exitY=1;exitDx=0;exitDy=0;entryX=0;entryY=0.5;entryDx=0;entryDy=0;" edge="1" parent="1" source="V0jLRe1Iar0bfor6HaaD-1" target="ytcm5A7RizO1AG_LOwBd-28">
          <mxGeometry relative="1" as="geometry">
            <mxPoint x="510" y="615.62" as="sourcePoint" />
            <mxPoint x="670" y="615.62" as="targetPoint" />
          </mxGeometry>
        </mxCell>
        <mxCell id="5PxoHh6JgG6SZzD1afo6-13" value="(2,2)" style="edgeLabel;html=1;align=center;verticalAlign=middle;resizable=0;points=[];" connectable="0" vertex="1" parent="ytcm5A7RizO1AG_LOwBd-29">
          <mxGeometry x="-0.0647" y="-3" relative="1" as="geometry">
            <mxPoint y="-1" as="offset" />
          </mxGeometry>
        </mxCell>
        <mxCell id="Qv7zX6T9AX3nA331XIr3-11" value="" style="endArrow=none;html=1;rounded=0;" edge="1" parent="1" source="3CGyiVarhpInRkeTOOhV-2" target="Qv7zX6T9AX3nA331XIr3-10">
          <mxGeometry width="50" height="50" relative="1" as="geometry">
            <mxPoint x="84" y="535.62" as="sourcePoint" />
            <mxPoint x="81" y="474.62" as="targetPoint" />
          </mxGeometry>
        </mxCell>
        <mxCell id="Qv7zX6T9AX3nA331XIr3-10" value="(1, N)" style="text;html=1;align=center;verticalAlign=middle;resizable=0;points=[];autosize=1;strokeColor=none;fillColor=none;" vertex="1" parent="1">
          <mxGeometry x="25.08" y="305.62" width="50" height="30" as="geometry" />
        </mxCell>
        <mxCell id="ytcm5A7RizO1AG_LOwBd-31" value="d,t" style="ellipse;whiteSpace=wrap;html=1;align=center;" vertex="1" parent="1">
          <mxGeometry x="985.5" y="734.38" width="30" height="30" as="geometry" />
        </mxCell>
        <mxCell id="6mL3hcfkqaH-60hYp9Ra-28" value="" style="edgeStyle=none;shape=connector;rounded=0;orthogonalLoop=1;jettySize=auto;html=1;labelBackgroundColor=default;strokeColor=default;align=center;verticalAlign=middle;fontFamily=Helvetica;fontSize=11;fontColor=default;endArrow=none;endFill=0;entryX=0;entryY=0.5;entryDx=0;entryDy=0;" edge="1" parent="1" source="ytcm5A7RizO1AG_LOwBd-35" target="V0jLRe1Iar0bfor6HaaD-1">
          <mxGeometry relative="1" as="geometry" />
        </mxCell>
        <mxCell id="XhkTKOobNBqWBhGaZhEt-14" value="(1, N)" style="edgeLabel;html=1;align=center;verticalAlign=middle;resizable=0;points=[];fontSize=11;fontFamily=Helvetica;fontColor=default;" connectable="0" vertex="1" parent="6mL3hcfkqaH-60hYp9Ra-28">
          <mxGeometry x="-0.3388" y="2" relative="1" as="geometry">
            <mxPoint as="offset" />
          </mxGeometry>
        </mxCell>
        <mxCell id="ytcm5A7RizO1AG_LOwBd-35" value="associated" style="rhombus;whiteSpace=wrap;html=1;fontFamily=Helvetica;fontSize=11;fontColor=default;direction=south;" vertex="1" parent="1">
          <mxGeometry x="425" y="595.62" width="80" height="40" as="geometry" />
        </mxCell>
        <mxCell id="ytcm5A7RizO1AG_LOwBd-40" value="" style="endArrow=none;html=1;rounded=0;exitX=0.5;exitY=1;exitDx=0;exitDy=0;entryX=1;entryY=0.5;entryDx=0;entryDy=0;" edge="1" parent="1" source="ytcm5A7RizO1AG_LOwBd-35" target="V0jLRe1Iar0bfor6HaaD-21">
          <mxGeometry relative="1" as="geometry">
            <mxPoint x="555" y="593.62" as="sourcePoint" />
            <mxPoint x="590" y="560.62" as="targetPoint" />
          </mxGeometry>
        </mxCell>
        <mxCell id="ytcm5A7RizO1AG_LOwBd-60" value="(1, 1)" style="edgeLabel;html=1;align=center;verticalAlign=middle;resizable=0;points=[];" connectable="0" vertex="1" parent="ytcm5A7RizO1AG_LOwBd-40">
          <mxGeometry x="0.2249" y="-1" relative="1" as="geometry">
            <mxPoint x="-1" as="offset" />
          </mxGeometry>
        </mxCell>
        <mxCell id="B8XEB3wURoFLUdZ86-zd-33" style="edgeStyle=none;shape=connector;rounded=0;orthogonalLoop=1;jettySize=auto;html=1;exitX=1;exitY=0.5;exitDx=0;exitDy=0;labelBackgroundColor=default;strokeColor=default;fontFamily=Helvetica;fontSize=11;fontColor=default;endArrow=none;endFill=0;entryX=0;entryY=0.75;entryDx=0;entryDy=0;" edge="1" parent="1" source="B8XEB3wURoFLUdZ86-zd-30" target="V0jLRe1Iar0bfor6HaaD-1">
          <mxGeometry relative="1" as="geometry">
            <mxPoint x="288" y="636" as="targetPoint" />
          </mxGeometry>
        </mxCell>
        <mxCell id="ytcm5A7RizO1AG_LOwBd-54" value="(1,1)" style="edgeLabel;html=1;align=center;verticalAlign=middle;resizable=0;points=[];" connectable="0" vertex="1" parent="B8XEB3wURoFLUdZ86-zd-33">
          <mxGeometry x="-0.0828" y="1" relative="1" as="geometry">
            <mxPoint as="offset" />
          </mxGeometry>
        </mxCell>
        <mxCell id="B8XEB3wURoFLUdZ86-zd-30" value="associated with" style="shape=rhombus;perimeter=rhombusPerimeter;whiteSpace=wrap;html=1;align=center;" vertex="1" parent="1">
          <mxGeometry x="230" y="756.25" width="100" height="46.88" as="geometry" />
        </mxCell>
        <mxCell id="ytcm5A7RizO1AG_LOwBd-43" value="" style="endArrow=none;html=1;rounded=0;entryX=0.5;entryY=1;entryDx=0;entryDy=0;" edge="1" parent="1" target="2sm-n9XB5zmbt778GoJv-12">
          <mxGeometry relative="1" as="geometry">
            <mxPoint x="330" y="440" as="sourcePoint" />
            <mxPoint x="362.22" y="400" as="targetPoint" />
            <Array as="points" />
          </mxGeometry>
        </mxCell>
        <mxCell id="B8XEB3wURoFLUdZ86-zd-44" value="(0,N)" style="edgeLabel;html=1;align=center;verticalAlign=middle;resizable=0;points=[];fontSize=11;fontFamily=Helvetica;fontColor=default;" vertex="1" connectable="0" parent="ytcm5A7RizO1AG_LOwBd-43">
          <mxGeometry x="0.0148" y="1" relative="1" as="geometry">
            <mxPoint as="offset" />
          </mxGeometry>
        </mxCell>
        <mxCell id="ytcm5A7RizO1AG_LOwBd-50" value="consumes" style="shape=rhombus;perimeter=rhombusPerimeter;whiteSpace=wrap;html=1;align=center;" vertex="1" parent="1">
          <mxGeometry x="559.72" y="756.25" width="70" height="40" as="geometry" />
        </mxCell>
        <mxCell id="ytcm5A7RizO1AG_LOwBd-51" value="" style="endArrow=none;html=1;rounded=0;exitX=0.5;exitY=1;exitDx=0;exitDy=0;entryX=0.5;entryY=1;entryDx=0;entryDy=0;" edge="1" parent="1" source="B8XEB3wURoFLUdZ86-zd-66" target="ytcm5A7RizO1AG_LOwBd-50">
          <mxGeometry relative="1" as="geometry">
            <mxPoint x="620.0000000000002" y="420.6200000000001" as="sourcePoint" />
            <mxPoint x="535" y="445.62" as="targetPoint" />
          </mxGeometry>
        </mxCell>
        <mxCell id="ytcm5A7RizO1AG_LOwBd-56" value="(1, 1)" style="edgeLabel;html=1;align=center;verticalAlign=middle;resizable=0;points=[];" connectable="0" vertex="1" parent="ytcm5A7RizO1AG_LOwBd-51">
          <mxGeometry x="-0.0149" relative="1" as="geometry">
            <mxPoint x="6" y="-20" as="offset" />
          </mxGeometry>
        </mxCell>
        <mxCell id="ytcm5A7RizO1AG_LOwBd-52" value="" style="endArrow=none;html=1;rounded=0;entryX=0.5;entryY=0;entryDx=0;entryDy=0;" edge="1" parent="1" target="ytcm5A7RizO1AG_LOwBd-50">
          <mxGeometry relative="1" as="geometry">
            <mxPoint x="610" y="595.62" as="sourcePoint" />
            <mxPoint x="615" y="455.62" as="targetPoint" />
          </mxGeometry>
        </mxCell>
        <mxCell id="ytcm5A7RizO1AG_LOwBd-55" value="(1, N)" style="edgeLabel;html=1;align=center;verticalAlign=middle;resizable=0;points=[];" connectable="0" vertex="1" parent="ytcm5A7RizO1AG_LOwBd-52">
          <mxGeometry x="-0.124" y="1" relative="1" as="geometry">
            <mxPoint as="offset" />
          </mxGeometry>
        </mxCell>
        <mxCell id="B8XEB3wURoFLUdZ86-zd-47" value="requests" style="rhombus;whiteSpace=wrap;html=1;" vertex="1" parent="1">
          <mxGeometry x="1060" y="131.87" width="80" height="50" as="geometry" />
        </mxCell>
        <mxCell id="B8XEB3wURoFLUdZ86-zd-51" style="edgeStyle=none;shape=connector;rounded=0;orthogonalLoop=1;jettySize=auto;html=1;exitX=1;exitY=0.5;exitDx=0;exitDy=0;entryX=0.25;entryY=1;entryDx=0;entryDy=0;labelBackgroundColor=default;strokeColor=default;fontFamily=Helvetica;fontSize=11;fontColor=default;endArrow=none;endFill=0;" edge="1" parent="1" source="B8XEB3wURoFLUdZ86-zd-50" target="V0jLRe1Iar0bfor6HaaD-11">
          <mxGeometry relative="1" as="geometry" />
        </mxCell>
        <mxCell id="B8XEB3wURoFLUdZ86-zd-52" value="(1,N)" style="edgeLabel;html=1;align=center;verticalAlign=middle;resizable=0;points=[];fontSize=11;fontFamily=Helvetica;fontColor=default;" vertex="1" connectable="0" parent="B8XEB3wURoFLUdZ86-zd-51">
          <mxGeometry x="-0.0245" y="1" relative="1" as="geometry">
            <mxPoint as="offset" />
          </mxGeometry>
        </mxCell>
        <mxCell id="B8XEB3wURoFLUdZ86-zd-50" value="&lt;font style=&quot;font-size: 11px;&quot;&gt;associated with&lt;/font&gt;" style="rhombus;whiteSpace=wrap;html=1;" vertex="1" parent="1">
          <mxGeometry x="1130" y="580" width="100" height="42.5" as="geometry" />
        </mxCell>
        <mxCell id="B8XEB3wURoFLUdZ86-zd-53" style="edgeStyle=none;shape=connector;rounded=0;orthogonalLoop=1;jettySize=auto;html=1;exitX=1;exitY=0;exitDx=0;exitDy=0;labelBackgroundColor=default;strokeColor=default;fontFamily=Helvetica;fontSize=11;fontColor=default;endArrow=none;endFill=0;" edge="1" parent="1" source="5PxoHh6JgG6SZzD1afo6-5" target="5PxoHh6JgG6SZzD1afo6-5">
          <mxGeometry relative="1" as="geometry" />
        </mxCell>
        <mxCell id="B8XEB3wURoFLUdZ86-zd-54" style="edgeStyle=none;shape=connector;rounded=0;orthogonalLoop=1;jettySize=auto;html=1;exitX=0.75;exitY=1;exitDx=0;exitDy=0;labelBackgroundColor=default;strokeColor=default;fontFamily=Helvetica;fontSize=11;fontColor=default;endArrow=none;endFill=0;" edge="1" parent="1" source="V0jLRe1Iar0bfor6HaaD-8" target="V0jLRe1Iar0bfor6HaaD-8">
          <mxGeometry relative="1" as="geometry" />
        </mxCell>
        <mxCell id="B8XEB3wURoFLUdZ86-zd-55" value="Liaison" style="shape=ext;margin=3;double=1;whiteSpace=wrap;html=1;align=center;fontFamily=Helvetica;fontSize=11;fontColor=default;fillColor=#FFFF99;" vertex="1" parent="1">
          <mxGeometry x="60" y="920" width="100" height="40" as="geometry" />
        </mxCell>
        <mxCell id="B8XEB3wURoFLUdZ86-zd-57" style="edgeStyle=none;shape=connector;rounded=0;orthogonalLoop=1;jettySize=auto;html=1;exitX=1.026;exitY=0.491;exitDx=0;exitDy=0;entryX=0;entryY=0.5;entryDx=0;entryDy=0;labelBackgroundColor=default;strokeColor=default;fontFamily=Helvetica;fontSize=11;fontColor=default;endArrow=none;endFill=0;exitPerimeter=0;" edge="1" parent="1" source="B8XEB3wURoFLUdZ86-zd-56" target="V0jLRe1Iar0bfor6HaaD-15">
          <mxGeometry relative="1" as="geometry" />
        </mxCell>
        <mxCell id="B8XEB3wURoFLUdZ86-zd-60" value="(1,N)" style="edgeLabel;html=1;align=center;verticalAlign=middle;resizable=0;points=[];fontSize=11;fontFamily=Helvetica;fontColor=default;" vertex="1" connectable="0" parent="B8XEB3wURoFLUdZ86-zd-57">
          <mxGeometry x="-0.0802" relative="1" as="geometry">
            <mxPoint as="offset" />
          </mxGeometry>
        </mxCell>
        <mxCell id="B8XEB3wURoFLUdZ86-zd-58" style="edgeStyle=none;shape=connector;rounded=0;orthogonalLoop=1;jettySize=auto;html=1;exitX=0;exitY=1;exitDx=0;exitDy=0;labelBackgroundColor=default;strokeColor=default;fontFamily=Helvetica;fontSize=11;fontColor=default;endArrow=none;endFill=0;entryX=0.5;entryY=0;entryDx=0;entryDy=0;" edge="1" parent="1" source="B8XEB3wURoFLUdZ86-zd-56" target="B8XEB3wURoFLUdZ86-zd-55">
          <mxGeometry relative="1" as="geometry">
            <mxPoint x="140.07999999999998" y="918.27" as="targetPoint" />
          </mxGeometry>
        </mxCell>
        <mxCell id="B8XEB3wURoFLUdZ86-zd-59" value="(1,1)" style="edgeLabel;html=1;align=center;verticalAlign=middle;resizable=0;points=[];fontSize=11;fontFamily=Helvetica;fontColor=default;" vertex="1" connectable="0" parent="B8XEB3wURoFLUdZ86-zd-58">
          <mxGeometry x="0.1091" y="-3" relative="1" as="geometry">
            <mxPoint as="offset" />
          </mxGeometry>
        </mxCell>
        <mxCell id="B8XEB3wURoFLUdZ86-zd-56" value="represents" style="shape=rhombus;double=1;perimeter=rhombusPerimeter;whiteSpace=wrap;html=1;align=center;fontFamily=Helvetica;fontSize=11;fontColor=default;" vertex="1" parent="1">
          <mxGeometry x="135" y="840" width="75" height="45" as="geometry" />
        </mxCell>
        <mxCell id="B8XEB3wURoFLUdZ86-zd-63" style="edgeStyle=none;shape=connector;rounded=0;orthogonalLoop=1;jettySize=auto;html=1;labelBackgroundColor=default;strokeColor=default;fontFamily=Helvetica;fontSize=11;fontColor=default;endArrow=none;endFill=0;" edge="1" parent="1" source="B8XEB3wURoFLUdZ86-zd-61" target="V0jLRe1Iar0bfor6HaaD-21">
          <mxGeometry relative="1" as="geometry" />
        </mxCell>
        <mxCell id="B8XEB3wURoFLUdZ86-zd-64" value="(1,1)" style="edgeLabel;html=1;align=center;verticalAlign=middle;resizable=0;points=[];fontSize=11;fontFamily=Helvetica;fontColor=default;" vertex="1" connectable="0" parent="B8XEB3wURoFLUdZ86-zd-63">
          <mxGeometry x="0.0334" y="-2" relative="1" as="geometry">
            <mxPoint as="offset" />
          </mxGeometry>
        </mxCell>
        <mxCell id="B8XEB3wURoFLUdZ86-zd-61" value="generates" style="shape=rhombus;perimeter=rhombusPerimeter;whiteSpace=wrap;html=1;align=center;fontFamily=Helvetica;fontSize=11;fontColor=default;" vertex="1" parent="1">
          <mxGeometry x="290" y="590.62" width="70" height="50" as="geometry" />
        </mxCell>
        <mxCell id="B8XEB3wURoFLUdZ86-zd-66" value="&lt;font style=&quot;font-size: 12px;&quot;&gt;Inventory Item&lt;/font&gt;" style="shape=ext;margin=3;double=1;whiteSpace=wrap;html=1;align=center;fontFamily=Helvetica;fontSize=11;fontColor=default;fillColor=#FFFF99;" vertex="1" parent="1">
          <mxGeometry x="529.72" y="863.27" width="100" height="40" as="geometry" />
        </mxCell>
        <mxCell id="B8XEB3wURoFLUdZ86-zd-70" style="edgeStyle=none;shape=connector;rounded=0;orthogonalLoop=1;jettySize=auto;html=1;exitX=1;exitY=1;exitDx=0;exitDy=0;entryX=0;entryY=0.5;entryDx=0;entryDy=0;labelBackgroundColor=default;strokeColor=default;fontFamily=Helvetica;fontSize=11;fontColor=default;endArrow=none;endFill=0;" edge="1" parent="1" source="B8XEB3wURoFLUdZ86-zd-67" target="B8XEB3wURoFLUdZ86-zd-69">
          <mxGeometry relative="1" as="geometry" />
        </mxCell>
        <mxCell id="B8XEB3wURoFLUdZ86-zd-72" value="(0, N)" style="edgeLabel;html=1;align=center;verticalAlign=middle;resizable=0;points=[];fontSize=11;fontFamily=Helvetica;fontColor=default;" vertex="1" connectable="0" parent="B8XEB3wURoFLUdZ86-zd-70">
          <mxGeometry x="-0.0069" y="1" relative="1" as="geometry">
            <mxPoint as="offset" />
          </mxGeometry>
        </mxCell>
        <mxCell id="5PxoHh6JgG6SZzD1afo6-20" style="edgeStyle=orthogonalEdgeStyle;rounded=0;orthogonalLoop=1;jettySize=auto;html=1;exitX=0;exitY=0.75;exitDx=0;exitDy=0;entryX=0.5;entryY=1;entryDx=0;entryDy=0;endArrow=none;endFill=0;" edge="1" parent="1" source="B8XEB3wURoFLUdZ86-zd-67" target="5PxoHh6JgG6SZzD1afo6-19">
          <mxGeometry relative="1" as="geometry">
            <Array as="points">
              <mxPoint x="398" y="869" />
              <mxPoint x="410" y="869" />
              <mxPoint x="410" y="991" />
              <mxPoint x="320" y="991" />
              <mxPoint x="320" y="971" />
              <mxPoint x="355" y="971" />
            </Array>
          </mxGeometry>
        </mxCell>
        <mxCell id="XZvsRH1rKc_Uf9_lsDH9-34" value="(1,N)" style="edgeLabel;html=1;align=center;verticalAlign=middle;resizable=0;points=[];" connectable="0" vertex="1" parent="5PxoHh6JgG6SZzD1afo6-20">
          <mxGeometry x="0.2989" y="-3" relative="1" as="geometry">
            <mxPoint as="offset" />
          </mxGeometry>
        </mxCell>
        <mxCell id="B8XEB3wURoFLUdZ86-zd-67" value="&lt;font style=&quot;font-size: 12px;&quot;&gt;Material&lt;/font&gt;" style="whiteSpace=wrap;html=1;align=center;fontFamily=Helvetica;fontSize=11;fontColor=default;fillColor=#FFFF99;" vertex="1" parent="1">
          <mxGeometry x="397.5" y="860" width="60" height="25" as="geometry" />
        </mxCell>
        <mxCell id="B8XEB3wURoFLUdZ86-zd-69" value="is of type" style="shape=rhombus;double=1;perimeter=rhombusPerimeter;whiteSpace=wrap;html=1;align=center;fontFamily=Helvetica;fontSize=11;fontColor=default;" vertex="1" parent="1">
          <mxGeometry x="460" y="935" width="100" height="45" as="geometry" />
        </mxCell>
        <mxCell id="B8XEB3wURoFLUdZ86-zd-71" style="edgeStyle=none;shape=connector;rounded=0;orthogonalLoop=1;jettySize=auto;html=1;exitX=0.5;exitY=0;exitDx=0;exitDy=0;entryX=0.5;entryY=1;entryDx=0;entryDy=0;labelBackgroundColor=default;strokeColor=default;fontFamily=Helvetica;fontSize=11;fontColor=default;endArrow=none;endFill=0;" edge="1" parent="1" source="B8XEB3wURoFLUdZ86-zd-69" target="B8XEB3wURoFLUdZ86-zd-66">
          <mxGeometry relative="1" as="geometry" />
        </mxCell>
        <mxCell id="B8XEB3wURoFLUdZ86-zd-73" value="(1,1)" style="edgeLabel;html=1;align=center;verticalAlign=middle;resizable=0;points=[];fontSize=11;fontFamily=Helvetica;fontColor=default;" vertex="1" connectable="0" parent="B8XEB3wURoFLUdZ86-zd-71">
          <mxGeometry x="0.0276" y="-3" relative="1" as="geometry">
            <mxPoint as="offset" />
          </mxGeometry>
        </mxCell>
        <mxCell id="5PxoHh6JgG6SZzD1afo6-19" value="provides" style="rhombus;whiteSpace=wrap;html=1;" vertex="1" parent="1">
          <mxGeometry x="330" y="907.5" width="80" height="37.5" as="geometry" />
        </mxCell>
        <mxCell id="6mL3hcfkqaH-60hYp9Ra-4" value="Project_Type" style="rounded=0;whiteSpace=wrap;html=1;fontFamily=Helvetica;fontSize=11;fontColor=default;direction=south;fillColor=#FFFF99;" vertex="1" parent="1">
          <mxGeometry x="700" y="350.62" width="80" height="30" as="geometry" />
        </mxCell>
        <mxCell id="6mL3hcfkqaH-60hYp9Ra-15" style="edgeStyle=none;shape=connector;rounded=0;orthogonalLoop=1;jettySize=auto;html=1;exitX=1;exitY=0;exitDx=0;exitDy=0;entryX=1;entryY=0.5;entryDx=0;entryDy=0;labelBackgroundColor=default;strokeColor=default;align=center;verticalAlign=middle;fontFamily=Helvetica;fontSize=11;fontColor=default;endArrow=none;endFill=0;" edge="1" parent="1" source="6mL3hcfkqaH-60hYp9Ra-8" target="6mL3hcfkqaH-60hYp9Ra-4">
          <mxGeometry relative="1" as="geometry" />
        </mxCell>
        <mxCell id="6mL3hcfkqaH-60hYp9Ra-17" value="(1,N)" style="edgeLabel;html=1;align=center;verticalAlign=middle;resizable=0;points=[];fontSize=11;fontFamily=Helvetica;fontColor=default;" connectable="0" vertex="1" parent="6mL3hcfkqaH-60hYp9Ra-15">
          <mxGeometry x="-0.0682" relative="1" as="geometry">
            <mxPoint as="offset" />
          </mxGeometry>
        </mxCell>
        <mxCell id="6mL3hcfkqaH-60hYp9Ra-8" value="is of type" style="rhombus;whiteSpace=wrap;html=1;" vertex="1" parent="1">
          <mxGeometry x="681.25" y="408.12" width="80" height="50" as="geometry" />
        </mxCell>
        <mxCell id="6mL3hcfkqaH-60hYp9Ra-20" style="edgeStyle=none;shape=connector;rounded=0;orthogonalLoop=1;jettySize=auto;html=1;exitX=0;exitY=1;exitDx=0;exitDy=0;entryX=0;entryY=1;entryDx=0;entryDy=0;labelBackgroundColor=default;strokeColor=default;align=center;verticalAlign=middle;fontFamily=Helvetica;fontSize=11;fontColor=default;endArrow=none;endFill=0;" edge="1" parent="1" source="6mL3hcfkqaH-60hYp9Ra-18" target="6mL3hcfkqaH-60hYp9Ra-4">
          <mxGeometry relative="1" as="geometry" />
        </mxCell>
        <mxCell id="6mL3hcfkqaH-60hYp9Ra-22" value="(1, N)" style="edgeLabel;html=1;align=center;verticalAlign=middle;resizable=0;points=[];fontSize=11;fontFamily=Helvetica;fontColor=default;" connectable="0" vertex="1" parent="6mL3hcfkqaH-60hYp9Ra-20">
          <mxGeometry x="0.0995" y="-1" relative="1" as="geometry">
            <mxPoint as="offset" />
          </mxGeometry>
        </mxCell>
        <mxCell id="6mL3hcfkqaH-60hYp9Ra-18" value="made for" style="rhombus;whiteSpace=wrap;html=1;fontFamily=Helvetica;fontSize=11;fontColor=default;" vertex="1" parent="1">
          <mxGeometry x="500" y="56.88" width="100" height="50" as="geometry" />
        </mxCell>
        <mxCell id="6mL3hcfkqaH-60hYp9Ra-25" style="shape=connector;rounded=0;orthogonalLoop=1;jettySize=auto;html=1;entryX=0;entryY=0.5;entryDx=0;entryDy=0;labelBackgroundColor=default;strokeColor=default;align=center;verticalAlign=middle;fontFamily=Helvetica;fontSize=11;fontColor=default;endArrow=none;endFill=0;exitX=1;exitY=0.5;exitDx=0;exitDy=0;" edge="1" parent="1" source="6mL3hcfkqaH-60hYp9Ra-23" target="V0jLRe1Iar0bfor6HaaD-12">
          <mxGeometry relative="1" as="geometry">
            <mxPoint x="740" y="150" as="sourcePoint" />
          </mxGeometry>
        </mxCell>
        <mxCell id="6mL3hcfkqaH-60hYp9Ra-27" value="(1,1)" style="edgeLabel;html=1;align=center;verticalAlign=middle;resizable=0;points=[];fontSize=11;fontFamily=Helvetica;fontColor=default;" connectable="0" vertex="1" parent="6mL3hcfkqaH-60hYp9Ra-25">
          <mxGeometry x="-0.1447" y="-3" relative="1" as="geometry">
            <mxPoint as="offset" />
          </mxGeometry>
        </mxCell>
        <mxCell id="6mL3hcfkqaH-60hYp9Ra-23" value="oversees" style="rhombus;whiteSpace=wrap;html=1;fontFamily=Helvetica;fontSize=11;fontColor=default;" vertex="1" parent="1">
          <mxGeometry x="440" y="10" width="80" height="46.88" as="geometry" />
        </mxCell>
        <mxCell id="m66RHuCAahKeRWMkVwcQ-2" value="related to" style="shape=rhombus;perimeter=rhombusPerimeter;whiteSpace=wrap;html=1;align=center;" vertex="1" parent="1">
          <mxGeometry x="820" y="495.62" width="120" height="60" as="geometry" />
        </mxCell>
        <mxCell id="m66RHuCAahKeRWMkVwcQ-3" value="" style="endArrow=none;html=1;rounded=0;exitX=1;exitY=0.25;exitDx=0;exitDy=0;entryX=0;entryY=0.5;entryDx=0;entryDy=0;" edge="1" parent="1" source="V0jLRe1Iar0bfor6HaaD-1" target="m66RHuCAahKeRWMkVwcQ-2">
          <mxGeometry relative="1" as="geometry">
            <mxPoint x="860" y="570" as="sourcePoint" />
            <mxPoint x="1020" y="570" as="targetPoint" />
          </mxGeometry>
        </mxCell>
        <mxCell id="XhkTKOobNBqWBhGaZhEt-16" value="(0, N)" style="edgeLabel;html=1;align=center;verticalAlign=middle;resizable=0;points=[];fontSize=11;fontFamily=Helvetica;fontColor=default;" connectable="0" vertex="1" parent="m66RHuCAahKeRWMkVwcQ-3">
          <mxGeometry x="0.047" y="1" relative="1" as="geometry">
            <mxPoint as="offset" />
          </mxGeometry>
        </mxCell>
        <mxCell id="m66RHuCAahKeRWMkVwcQ-6" value="Feedback" style="rounded=0;whiteSpace=wrap;html=1;fillColor=#FFFF99;" vertex="1" parent="1">
          <mxGeometry x="1005" y="448.12" width="70" height="30" as="geometry" />
        </mxCell>
        <mxCell id="m66RHuCAahKeRWMkVwcQ-8" value="" style="endArrow=none;html=1;rounded=0;exitX=0;exitY=1;exitDx=0;exitDy=0;entryX=1;entryY=0.5;entryDx=0;entryDy=0;" edge="1" parent="1" source="m66RHuCAahKeRWMkVwcQ-6" target="m66RHuCAahKeRWMkVwcQ-2">
          <mxGeometry relative="1" as="geometry">
            <mxPoint x="1162" y="434" as="sourcePoint" />
            <mxPoint x="1080" y="498" as="targetPoint" />
          </mxGeometry>
        </mxCell>
        <mxCell id="XhkTKOobNBqWBhGaZhEt-15" value="(1, 1)" style="edgeLabel;html=1;align=center;verticalAlign=middle;resizable=0;points=[];fontSize=11;fontFamily=Helvetica;fontColor=default;" connectable="0" vertex="1" parent="m66RHuCAahKeRWMkVwcQ-8">
          <mxGeometry x="-0.0633" y="-1" relative="1" as="geometry">
            <mxPoint as="offset" />
          </mxGeometry>
        </mxCell>
        <mxCell id="6mL3hcfkqaH-60hYp9Ra-39" style="edgeStyle=none;shape=connector;rounded=0;orthogonalLoop=1;jettySize=auto;html=1;exitX=0.5;exitY=1;exitDx=0;exitDy=0;entryX=0.5;entryY=0;entryDx=0;entryDy=0;labelBackgroundColor=default;strokeColor=default;align=center;verticalAlign=middle;fontFamily=Helvetica;fontSize=11;fontColor=default;endArrow=none;endFill=0;" edge="1" parent="1" source="6mL3hcfkqaH-60hYp9Ra-34" target="6mL3hcfkqaH-60hYp9Ra-38">
          <mxGeometry relative="1" as="geometry" />
        </mxCell>
        <mxCell id="6mL3hcfkqaH-60hYp9Ra-42" value="(1,N)" style="edgeLabel;html=1;align=center;verticalAlign=middle;resizable=0;points=[];fontSize=11;fontFamily=Helvetica;fontColor=default;" connectable="0" vertex="1" parent="6mL3hcfkqaH-60hYp9Ra-39">
          <mxGeometry x="0.0298" y="-1" relative="1" as="geometry">
            <mxPoint as="offset" />
          </mxGeometry>
        </mxCell>
        <mxCell id="6mL3hcfkqaH-60hYp9Ra-34" value="Location" style="rounded=0;whiteSpace=wrap;html=1;fontFamily=Helvetica;fontSize=11;fontColor=default;fillColor=#FFFF99;" vertex="1" parent="1">
          <mxGeometry x="1145.5" y="903.27" width="99.5" height="46.73" as="geometry" />
        </mxCell>
        <mxCell id="m66RHuCAahKeRWMkVwcQ-12" value="" style="endArrow=none;html=1;rounded=0;exitX=1;exitY=0.5;exitDx=0;exitDy=0;entryX=0;entryY=0.5;entryDx=0;entryDy=0;" edge="1" parent="1" source="V0jLRe1Iar0bfor6HaaD-19" target="QLAGr_2DhoVd9Ir-5f-1-2">
          <mxGeometry relative="1" as="geometry">
            <mxPoint x="961" y="528" as="sourcePoint" />
            <mxPoint x="1030" y="531" as="targetPoint" />
          </mxGeometry>
        </mxCell>
        <mxCell id="dsaff5UCi93PaBDCJ_9--19" value="(1, N)" style="edgeLabel;html=1;align=center;verticalAlign=middle;resizable=0;points=[];" connectable="0" vertex="1" parent="m66RHuCAahKeRWMkVwcQ-12">
          <mxGeometry x="0.2143" y="1" relative="1" as="geometry">
            <mxPoint as="offset" />
          </mxGeometry>
        </mxCell>
        <mxCell id="6mL3hcfkqaH-60hYp9Ra-36" value="&lt;font style=&quot;font-size: 12px;&quot;&gt;Warehouse&lt;/font&gt;" style="rounded=0;whiteSpace=wrap;html=1;fontFamily=Helvetica;fontSize=11;fontColor=default;fillColor=#FFFF99;" vertex="1" parent="1">
          <mxGeometry x="989.75" y="1090" width="120" height="40" as="geometry" />
        </mxCell>
        <mxCell id="6mL3hcfkqaH-60hYp9Ra-40" style="edgeStyle=none;shape=connector;rounded=0;orthogonalLoop=1;jettySize=auto;html=1;exitX=0.5;exitY=1;exitDx=0;exitDy=0;entryX=0.5;entryY=0;entryDx=0;entryDy=0;labelBackgroundColor=default;strokeColor=default;align=center;verticalAlign=middle;fontFamily=Helvetica;fontSize=11;fontColor=default;endArrow=none;endFill=0;" edge="1" parent="1" source="6mL3hcfkqaH-60hYp9Ra-38" target="6mL3hcfkqaH-60hYp9Ra-36">
          <mxGeometry relative="1" as="geometry" />
        </mxCell>
        <mxCell id="6mL3hcfkqaH-60hYp9Ra-41" value="(1,1)" style="edgeLabel;html=1;align=center;verticalAlign=middle;resizable=0;points=[];fontSize=11;fontFamily=Helvetica;fontColor=default;" connectable="0" vertex="1" parent="6mL3hcfkqaH-60hYp9Ra-40">
          <mxGeometry x="0.068" relative="1" as="geometry">
            <mxPoint as="offset" />
          </mxGeometry>
        </mxCell>
        <mxCell id="6mL3hcfkqaH-60hYp9Ra-38" value="located at" style="rhombus;whiteSpace=wrap;html=1;fontFamily=Helvetica;fontSize=11;fontColor=default;" vertex="1" parent="1">
          <mxGeometry x="1109.75" y="995" width="80" height="50" as="geometry" />
        </mxCell>
        <mxCell id="CT3C5RQsG4SJKDUyV9AX-1" value="places" style="rhombus;whiteSpace=wrap;html=1;" vertex="1" parent="1">
          <mxGeometry x="10.079999999999998" y="505.62" width="70" height="40" as="geometry" />
        </mxCell>
        <mxCell id="CT3C5RQsG4SJKDUyV9AX-2" value="" style="endArrow=none;html=1;rounded=0;entryX=0;entryY=0.75;entryDx=0;entryDy=0;exitX=1;exitY=0.5;exitDx=0;exitDy=0;" edge="1" parent="1" source="CT3C5RQsG4SJKDUyV9AX-1" target="V0jLRe1Iar0bfor6HaaD-19">
          <mxGeometry width="50" height="50" relative="1" as="geometry">
            <mxPoint x="113" y="643" as="sourcePoint" />
            <mxPoint x="129" y="682" as="targetPoint" />
          </mxGeometry>
        </mxCell>
        <mxCell id="CT3C5RQsG4SJKDUyV9AX-3" value="(0,N)" style="edgeLabel;html=1;align=center;verticalAlign=middle;resizable=0;points=[];fontSize=11;fontFamily=Helvetica;fontColor=default;" connectable="0" vertex="1" parent="CT3C5RQsG4SJKDUyV9AX-2">
          <mxGeometry x="0.08" relative="1" as="geometry">
            <mxPoint as="offset" />
          </mxGeometry>
        </mxCell>
        <mxCell id="CT3C5RQsG4SJKDUyV9AX-4" value="" style="endArrow=none;html=1;rounded=0;exitX=0.5;exitY=1;exitDx=0;exitDy=0;entryX=0.5;entryY=0;entryDx=0;entryDy=0;" edge="1" parent="1" source="CT3C5RQsG4SJKDUyV9AX-1" target="V0jLRe1Iar0bfor6HaaD-2">
          <mxGeometry width="50" height="50" relative="1" as="geometry">
            <mxPoint x="123" y="653" as="sourcePoint" />
            <mxPoint x="139" y="692" as="targetPoint" />
          </mxGeometry>
        </mxCell>
        <mxCell id="CT3C5RQsG4SJKDUyV9AX-5" value="(1,1)" style="edgeLabel;html=1;align=center;verticalAlign=middle;resizable=0;points=[];fontSize=11;fontFamily=Helvetica;fontColor=default;" connectable="0" vertex="1" parent="CT3C5RQsG4SJKDUyV9AX-4">
          <mxGeometry x="0.08" relative="1" as="geometry">
            <mxPoint as="offset" />
          </mxGeometry>
        </mxCell>
        <mxCell id="6mL3hcfkqaH-60hYp9Ra-44" style="edgeStyle=orthogonalEdgeStyle;shape=connector;rounded=0;orthogonalLoop=1;jettySize=auto;html=1;exitX=0.5;exitY=1;exitDx=0;exitDy=0;entryX=1;entryY=0.5;entryDx=0;entryDy=0;labelBackgroundColor=default;strokeColor=default;align=center;verticalAlign=middle;fontFamily=Helvetica;fontSize=11;fontColor=default;endArrow=none;endFill=0;" edge="1" parent="1" source="6mL3hcfkqaH-60hYp9Ra-43" target="6mL3hcfkqaH-60hYp9Ra-34">
          <mxGeometry relative="1" as="geometry" />
        </mxCell>
        <mxCell id="6mL3hcfkqaH-60hYp9Ra-45" value="(1,M)" style="edgeLabel;html=1;align=center;verticalAlign=middle;resizable=0;points=[];fontSize=11;fontFamily=Helvetica;fontColor=default;" connectable="0" vertex="1" parent="6mL3hcfkqaH-60hYp9Ra-44">
          <mxGeometry x="0.2666" y="-1" relative="1" as="geometry">
            <mxPoint as="offset" />
          </mxGeometry>
        </mxCell>
        <mxCell id="6mL3hcfkqaH-60hYp9Ra-43" value="has location in" style="rhombus;whiteSpace=wrap;html=1;fontFamily=Helvetica;fontSize=11;fontColor=default;" vertex="1" parent="1">
          <mxGeometry x="1277" y="783.27" width="95" height="56.73" as="geometry" />
        </mxCell>
        <mxCell id="CT3C5RQsG4SJKDUyV9AX-7" style="edgeStyle=orthogonalEdgeStyle;rounded=0;orthogonalLoop=1;jettySize=auto;html=1;endArrow=none;endFill=0;entryX=0;entryY=0.5;entryDx=0;entryDy=0;exitX=0;exitY=0.5;exitDx=0;exitDy=0;" edge="1" parent="1" source="CT3C5RQsG4SJKDUyV9AX-9" target="V0jLRe1Iar0bfor6HaaD-19">
          <mxGeometry relative="1" as="geometry">
            <mxPoint x="426.86000000000024" y="1146.79" as="sourcePoint" />
            <mxPoint x="234.64" y="471.1599999999999" as="targetPoint" />
            <Array as="points">
              <mxPoint x="435" y="1109" />
              <mxPoint x="435" y="1110" />
              <mxPoint x="-160" y="1110" />
              <mxPoint x="-160" y="458" />
              <mxPoint x="250" y="458" />
            </Array>
          </mxGeometry>
        </mxCell>
        <mxCell id="CT3C5RQsG4SJKDUyV9AX-8" value="(0, N)" style="edgeLabel;html=1;align=center;verticalAlign=middle;resizable=0;points=[];" connectable="0" vertex="1" parent="CT3C5RQsG4SJKDUyV9AX-7">
          <mxGeometry x="0.2989" y="-3" relative="1" as="geometry">
            <mxPoint as="offset" />
          </mxGeometry>
        </mxCell>
        <mxCell id="m66RHuCAahKeRWMkVwcQ-13" value="Store" style="shape=rhombus;perimeter=rhombusPerimeter;whiteSpace=wrap;html=1;align=center;" vertex="1" parent="1">
          <mxGeometry x="740" y="945" width="90" height="50" as="geometry" />
        </mxCell>
        <mxCell id="m66RHuCAahKeRWMkVwcQ-14" value="" style="endArrow=none;html=1;rounded=0;exitX=1;exitY=0.5;exitDx=0;exitDy=0;entryX=0;entryY=0.5;entryDx=0;entryDy=0;" edge="1" parent="1" source="B8XEB3wURoFLUdZ86-zd-66" target="m66RHuCAahKeRWMkVwcQ-13">
          <mxGeometry relative="1" as="geometry">
            <mxPoint x="620" y="750" as="sourcePoint" />
            <mxPoint x="780" y="750" as="targetPoint" />
          </mxGeometry>
        </mxCell>
        <mxCell id="94XweneRZ0exhvVGz7TE-32" value="(1,1)" style="edgeLabel;html=1;align=center;verticalAlign=middle;resizable=0;points=[];" connectable="0" vertex="1" parent="m66RHuCAahKeRWMkVwcQ-14">
          <mxGeometry x="0.0743" y="-2" relative="1" as="geometry">
            <mxPoint as="offset" />
          </mxGeometry>
        </mxCell>
        <mxCell id="m66RHuCAahKeRWMkVwcQ-15" value="" style="endArrow=none;html=1;rounded=0;exitX=0;exitY=0.25;exitDx=0;exitDy=0;entryX=1;entryY=0.5;entryDx=0;entryDy=0;" edge="1" parent="1" source="6mL3hcfkqaH-60hYp9Ra-36" target="m66RHuCAahKeRWMkVwcQ-13">
          <mxGeometry relative="1" as="geometry">
            <mxPoint x="640" y="893" as="sourcePoint" />
            <mxPoint x="750" y="980" as="targetPoint" />
          </mxGeometry>
        </mxCell>
        <mxCell id="94XweneRZ0exhvVGz7TE-33" value="(1, N)" style="edgeLabel;html=1;align=center;verticalAlign=middle;resizable=0;points=[];" connectable="0" vertex="1" parent="m66RHuCAahKeRWMkVwcQ-15">
          <mxGeometry x="0.328" y="-2" relative="1" as="geometry">
            <mxPoint as="offset" />
          </mxGeometry>
        </mxCell>
        <mxCell id="CT3C5RQsG4SJKDUyV9AX-9" value="manages" style="rhombus;whiteSpace=wrap;html=1;" vertex="1" parent="1">
          <mxGeometry x="430" y="1090" width="80" height="37.5" as="geometry" />
        </mxCell>
        <mxCell id="CT3C5RQsG4SJKDUyV9AX-12" value="" style="endArrow=none;html=1;rounded=0;exitX=0;exitY=0.5;exitDx=0;exitDy=0;entryX=1;entryY=0.5;entryDx=0;entryDy=0;" edge="1" parent="1" source="6mL3hcfkqaH-60hYp9Ra-36" target="CT3C5RQsG4SJKDUyV9AX-9">
          <mxGeometry relative="1" as="geometry">
            <mxPoint x="880" y="1230" as="sourcePoint" />
            <mxPoint x="720" y="1100" as="targetPoint" />
          </mxGeometry>
        </mxCell>
        <mxCell id="CT3C5RQsG4SJKDUyV9AX-13" value="(1,1)" style="edgeLabel;html=1;align=center;verticalAlign=middle;resizable=0;points=[];" connectable="0" vertex="1" parent="CT3C5RQsG4SJKDUyV9AX-12">
          <mxGeometry x="-0.0062" y="1" relative="1" as="geometry">
            <mxPoint as="offset" />
          </mxGeometry>
        </mxCell>
        <mxCell id="m66RHuCAahKeRWMkVwcQ-17" value="" style="endArrow=none;html=1;rounded=0;exitX=0.866;exitY=0.01;exitDx=0;exitDy=0;entryX=0;entryY=0.5;entryDx=0;entryDy=0;exitPerimeter=0;" edge="1" parent="1" source="B8XEB3wURoFLUdZ86-zd-66" target="gUjhPtSgeOavMeUeWidY-21">
          <mxGeometry relative="1" as="geometry">
            <mxPoint x="640" y="893" as="sourcePoint" />
            <mxPoint x="670" y="792.5" as="targetPoint" />
          </mxGeometry>
        </mxCell>
        <mxCell id="m66RHuCAahKeRWMkVwcQ-24" value="QA Inspector" style="rounded=0;whiteSpace=wrap;html=1;fillColor=#ffff88;strokeColor=#36393d;" vertex="1" parent="1">
          <mxGeometry x="715" y="753.27" width="75" height="30" as="geometry" />
        </mxCell>
        <mxCell id="m66RHuCAahKeRWMkVwcQ-25" value="" style="endArrow=none;html=1;rounded=0;entryX=0.5;entryY=1;entryDx=0;entryDy=0;exitX=0.5;exitY=0;exitDx=0;exitDy=0;" edge="1" parent="1" source="m66RHuCAahKeRWMkVwcQ-26" target="V0jLRe1Iar0bfor6HaaD-1">
          <mxGeometry relative="1" as="geometry">
            <mxPoint x="680" y="690" as="sourcePoint" />
            <mxPoint x="961" y="528" as="targetPoint" />
          </mxGeometry>
        </mxCell>
        <mxCell id="XhkTKOobNBqWBhGaZhEt-19" value="(1, M)" style="edgeLabel;html=1;align=center;verticalAlign=middle;resizable=0;points=[];fontSize=11;fontFamily=Helvetica;fontColor=default;" connectable="0" vertex="1" parent="m66RHuCAahKeRWMkVwcQ-25">
          <mxGeometry x="0.1066" y="1" relative="1" as="geometry">
            <mxPoint as="offset" />
          </mxGeometry>
        </mxCell>
        <mxCell id="m66RHuCAahKeRWMkVwcQ-26" value="inspects" style="shape=rhombus;perimeter=rhombusPerimeter;whiteSpace=wrap;html=1;align=center;" vertex="1" parent="1">
          <mxGeometry x="660" y="660.62" width="70" height="42.5" as="geometry" />
        </mxCell>
        <mxCell id="m66RHuCAahKeRWMkVwcQ-28" value="" style="endArrow=none;html=1;rounded=0;entryX=0;entryY=0.25;entryDx=0;entryDy=0;exitX=0.5;exitY=1;exitDx=0;exitDy=0;" edge="1" parent="1" source="m66RHuCAahKeRWMkVwcQ-26" target="m66RHuCAahKeRWMkVwcQ-24">
          <mxGeometry relative="1" as="geometry">
            <mxPoint x="705" y="718" as="sourcePoint" />
            <mxPoint x="660" y="606" as="targetPoint" />
          </mxGeometry>
        </mxCell>
        <mxCell id="XhkTKOobNBqWBhGaZhEt-18" value="(1, N)" style="edgeLabel;html=1;align=center;verticalAlign=middle;resizable=0;points=[];fontSize=11;fontFamily=Helvetica;fontColor=default;" connectable="0" vertex="1" parent="m66RHuCAahKeRWMkVwcQ-28">
          <mxGeometry x="-0.1394" y="1" relative="1" as="geometry">
            <mxPoint as="offset" />
          </mxGeometry>
        </mxCell>
        <mxCell id="m66RHuCAahKeRWMkVwcQ-30" value="file" style="shape=rhombus;perimeter=rhombusPerimeter;whiteSpace=wrap;html=1;align=center;" vertex="1" parent="1">
          <mxGeometry x="780" y="705.62" width="60" height="32.5" as="geometry" />
        </mxCell>
        <mxCell id="m66RHuCAahKeRWMkVwcQ-31" value="" style="endArrow=none;html=1;rounded=0;" edge="1" parent="1" source="m66RHuCAahKeRWMkVwcQ-30" target="m66RHuCAahKeRWMkVwcQ-24">
          <mxGeometry relative="1" as="geometry">
            <mxPoint x="691" y="743" as="sourcePoint" />
            <mxPoint x="755" y="768" as="targetPoint" />
          </mxGeometry>
        </mxCell>
        <mxCell id="dsaff5UCi93PaBDCJ_9--16" value="(1, N)" style="edgeLabel;html=1;align=center;verticalAlign=middle;resizable=0;points=[];" connectable="0" vertex="1" parent="m66RHuCAahKeRWMkVwcQ-31">
          <mxGeometry x="-0.1866" y="-2" relative="1" as="geometry">
            <mxPoint x="1" as="offset" />
          </mxGeometry>
        </mxCell>
        <mxCell id="m66RHuCAahKeRWMkVwcQ-32" value="" style="endArrow=none;html=1;rounded=0;" edge="1" parent="1" source="m66RHuCAahKeRWMkVwcQ-30" target="ytcm5A7RizO1AG_LOwBd-26">
          <mxGeometry relative="1" as="geometry">
            <mxPoint x="860" y="794" as="sourcePoint" />
            <mxPoint x="820" y="783" as="targetPoint" />
          </mxGeometry>
        </mxCell>
        <mxCell id="XhkTKOobNBqWBhGaZhEt-2" value="(1, 1)" style="edgeLabel;html=1;align=center;verticalAlign=middle;resizable=0;points=[];" connectable="0" vertex="1" parent="m66RHuCAahKeRWMkVwcQ-32">
          <mxGeometry x="0.0608" relative="1" as="geometry">
            <mxPoint as="offset" />
          </mxGeometry>
        </mxCell>
        <mxCell id="XhkTKOobNBqWBhGaZhEt-5" style="edgeStyle=none;shape=connector;rounded=0;orthogonalLoop=1;jettySize=auto;html=1;exitX=0.5;exitY=1;exitDx=0;exitDy=0;entryX=0.75;entryY=0;entryDx=0;entryDy=0;labelBackgroundColor=default;strokeColor=default;align=center;verticalAlign=middle;fontFamily=Helvetica;fontSize=11;fontColor=default;endArrow=none;endFill=0;" edge="1" parent="1" source="gUjhPtSgeOavMeUeWidY-2" target="6mL3hcfkqaH-60hYp9Ra-34">
          <mxGeometry relative="1" as="geometry" />
        </mxCell>
        <mxCell id="gUjhPtSgeOavMeUeWidY-2" value="Street" style="ellipse;whiteSpace=wrap;html=1;" vertex="1" parent="1">
          <mxGeometry x="1203" y="840" width="60" height="30" as="geometry" />
        </mxCell>
        <mxCell id="XhkTKOobNBqWBhGaZhEt-3" style="rounded=0;orthogonalLoop=1;jettySize=auto;html=1;exitX=0.5;exitY=1;exitDx=0;exitDy=0;endArrow=none;endFill=0;" edge="1" parent="1" source="gUjhPtSgeOavMeUeWidY-3" target="6mL3hcfkqaH-60hYp9Ra-34">
          <mxGeometry relative="1" as="geometry" />
        </mxCell>
        <mxCell id="gUjhPtSgeOavMeUeWidY-3" value="State" style="ellipse;whiteSpace=wrap;html=1;" vertex="1" parent="1">
          <mxGeometry x="1130" y="836.5" width="60" height="30" as="geometry" />
        </mxCell>
        <mxCell id="XhkTKOobNBqWBhGaZhEt-6" style="edgeStyle=none;shape=connector;rounded=0;orthogonalLoop=1;jettySize=auto;html=1;exitX=0.5;exitY=1;exitDx=0;exitDy=0;entryX=0;entryY=0.25;entryDx=0;entryDy=0;labelBackgroundColor=default;strokeColor=default;align=center;verticalAlign=middle;fontFamily=Helvetica;fontSize=11;fontColor=default;endArrow=none;endFill=0;" edge="1" parent="1" source="gUjhPtSgeOavMeUeWidY-4" target="6mL3hcfkqaH-60hYp9Ra-34">
          <mxGeometry relative="1" as="geometry" />
        </mxCell>
        <mxCell id="gUjhPtSgeOavMeUeWidY-4" value="City" style="ellipse;whiteSpace=wrap;html=1;" vertex="1" parent="1">
          <mxGeometry x="1050" y="843.27" width="60" height="30" as="geometry" />
        </mxCell>
        <mxCell id="gUjhPtSgeOavMeUeWidY-10" value="&lt;font style=&quot;font-size: 25px;&quot;&gt;Team 4 Asphalt Construction EER Diagram&lt;/font&gt;" style="text;html=1;strokeColor=none;fillColor=none;align=center;verticalAlign=middle;whiteSpace=wrap;rounded=0;" vertex="1" parent="1">
          <mxGeometry x="1090" y="30" width="296.12" height="60" as="geometry" />
        </mxCell>
        <mxCell id="gUjhPtSgeOavMeUeWidY-11" value="Works on" style="rhombus;whiteSpace=wrap;html=1;" vertex="1" parent="1">
          <mxGeometry x="460" y="466.87" width="90" height="54.38" as="geometry" />
        </mxCell>
        <mxCell id="gUjhPtSgeOavMeUeWidY-12" value="" style="endArrow=none;html=1;rounded=0;exitX=1;exitY=1;exitDx=0;exitDy=0;entryX=0;entryY=0.5;entryDx=0;entryDy=0;" edge="1" parent="1" source="V0jLRe1Iar0bfor6HaaD-19" target="gUjhPtSgeOavMeUeWidY-11">
          <mxGeometry width="50" height="50" relative="1" as="geometry">
            <mxPoint x="770" y="430" as="sourcePoint" />
            <mxPoint x="820" y="380" as="targetPoint" />
          </mxGeometry>
        </mxCell>
        <mxCell id="gUjhPtSgeOavMeUeWidY-13" value="(0,N)" style="edgeLabel;html=1;align=center;verticalAlign=middle;resizable=0;points=[];" connectable="0" vertex="1" parent="gUjhPtSgeOavMeUeWidY-12">
          <mxGeometry x="-0.0102" y="3" relative="1" as="geometry">
            <mxPoint as="offset" />
          </mxGeometry>
        </mxCell>
        <mxCell id="gUjhPtSgeOavMeUeWidY-14" value="" style="endArrow=none;html=1;rounded=0;exitX=0.25;exitY=0;exitDx=0;exitDy=0;entryX=1;entryY=0.5;entryDx=0;entryDy=0;" edge="1" parent="1" source="V0jLRe1Iar0bfor6HaaD-1" target="gUjhPtSgeOavMeUeWidY-11">
          <mxGeometry width="50" height="50" relative="1" as="geometry">
            <mxPoint x="770" y="430" as="sourcePoint" />
            <mxPoint x="820" y="380" as="targetPoint" />
          </mxGeometry>
        </mxCell>
        <mxCell id="XhkTKOobNBqWBhGaZhEt-13" value="(4, N)" style="edgeLabel;html=1;align=center;verticalAlign=middle;resizable=0;points=[];fontSize=11;fontFamily=Helvetica;fontColor=default;" connectable="0" vertex="1" parent="gUjhPtSgeOavMeUeWidY-14">
          <mxGeometry x="0.141" y="2" relative="1" as="geometry">
            <mxPoint as="offset" />
          </mxGeometry>
        </mxCell>
        <mxCell id="gUjhPtSgeOavMeUeWidY-16" value="Specializes in" style="rhombus;whiteSpace=wrap;html=1;" vertex="1" parent="1">
          <mxGeometry x="529.72" y="340.93" width="100" height="49.38" as="geometry" />
        </mxCell>
        <mxCell id="gUjhPtSgeOavMeUeWidY-17" value="" style="endArrow=none;html=1;rounded=0;exitX=1;exitY=0;exitDx=0;exitDy=0;entryX=0;entryY=0.5;entryDx=0;entryDy=0;" edge="1" parent="1" source="V0jLRe1Iar0bfor6HaaD-19" target="gUjhPtSgeOavMeUeWidY-16">
          <mxGeometry width="50" height="50" relative="1" as="geometry">
            <mxPoint x="770" y="430" as="sourcePoint" />
            <mxPoint x="820" y="380" as="targetPoint" />
          </mxGeometry>
        </mxCell>
        <mxCell id="gUjhPtSgeOavMeUeWidY-19" value="(0,N)" style="edgeLabel;html=1;align=center;verticalAlign=middle;resizable=0;points=[];" connectable="0" vertex="1" parent="gUjhPtSgeOavMeUeWidY-17">
          <mxGeometry x="0.2035" relative="1" as="geometry">
            <mxPoint as="offset" />
          </mxGeometry>
        </mxCell>
        <mxCell id="gUjhPtSgeOavMeUeWidY-18" value="" style="endArrow=none;html=1;rounded=0;exitX=1;exitY=0.5;exitDx=0;exitDy=0;entryX=0.5;entryY=1;entryDx=0;entryDy=0;" edge="1" parent="1" source="gUjhPtSgeOavMeUeWidY-16" target="6mL3hcfkqaH-60hYp9Ra-4">
          <mxGeometry width="50" height="50" relative="1" as="geometry">
            <mxPoint x="770" y="430" as="sourcePoint" />
            <mxPoint x="820" y="380" as="targetPoint" />
          </mxGeometry>
        </mxCell>
        <mxCell id="gUjhPtSgeOavMeUeWidY-20" value="(0,N)" style="edgeLabel;html=1;align=center;verticalAlign=middle;resizable=0;points=[];" connectable="0" vertex="1" parent="gUjhPtSgeOavMeUeWidY-18">
          <mxGeometry x="0.0174" relative="1" as="geometry">
            <mxPoint as="offset" />
          </mxGeometry>
        </mxCell>
        <mxCell id="gUjhPtSgeOavMeUeWidY-21" value="Issue" style="ellipse;whiteSpace=wrap;html=1;" vertex="1" parent="1">
          <mxGeometry x="660" y="820" width="63.75" height="30" as="geometry" />
        </mxCell>
        <mxCell id="YdjfWjEURbUF6szq9cXo-1" value="Salesperson" style="rounded=0;whiteSpace=wrap;html=1;fillColor=#66FFFF;" vertex="1" parent="1">
          <mxGeometry x="120.00000000000001" y="241.87" width="70" height="40" as="geometry" />
        </mxCell>
        <mxCell id="YdjfWjEURbUF6szq9cXo-2" value="" style="endArrow=classic;html=1;rounded=0;exitX=1;exitY=1;exitDx=0;exitDy=0;entryX=0.5;entryY=0;entryDx=0;entryDy=0;" edge="1" parent="1" source="YdjfWjEURbUF6szq9cXo-1" target="5PxoHh6JgG6SZzD1afo6-1">
          <mxGeometry width="50" height="50" relative="1" as="geometry">
            <mxPoint x="157" y="331" as="sourcePoint" />
            <mxPoint x="199" y="417" as="targetPoint" />
          </mxGeometry>
        </mxCell>
        <mxCell id="QLAGr_2DhoVd9Ir-5f-1-2" value="reads" style="shape=rhombus;perimeter=rhombusPerimeter;whiteSpace=wrap;html=1;align=center;" vertex="1" parent="1">
          <mxGeometry x="770" y="435.62" width="120" height="60" as="geometry" />
        </mxCell>
        <mxCell id="QLAGr_2DhoVd9Ir-5f-1-4" value="(1, 1)" style="endArrow=none;html=1;rounded=0;exitX=0;exitY=0.5;exitDx=0;exitDy=0;entryX=1;entryY=0.5;entryDx=0;entryDy=0;" edge="1" parent="1" source="m66RHuCAahKeRWMkVwcQ-6" target="QLAGr_2DhoVd9Ir-5f-1-2">
          <mxGeometry relative="1" as="geometry">
            <mxPoint x="1050" y="476" as="sourcePoint" />
            <mxPoint x="950" y="536" as="targetPoint" />
            <Array as="points" />
          </mxGeometry>
        </mxCell>
        <mxCell id="2sm-n9XB5zmbt778GoJv-12" value="generates" style="rhombus;whiteSpace=wrap;html=1;" vertex="1" parent="1">
          <mxGeometry x="345" y="315.62" width="59.5" height="50" as="geometry" />
        </mxCell>
        <mxCell id="2sm-n9XB5zmbt778GoJv-43" value="" style="endArrow=none;html=1;rounded=0;exitX=0.5;exitY=0;exitDx=0;exitDy=0;entryX=0.5;entryY=0;entryDx=0;entryDy=0;" edge="1" parent="1" source="2sm-n9XB5zmbt778GoJv-12" target="V0jLRe1Iar0bfor6HaaD-17">
          <mxGeometry width="50" height="50" relative="1" as="geometry">
            <mxPoint x="320.0016436216097" y="280.61852405177274" as="sourcePoint" />
            <mxPoint x="428" y="180" as="targetPoint" />
          </mxGeometry>
        </mxCell>
        <mxCell id="XhkTKOobNBqWBhGaZhEt-17" value="(1, 1)" style="edgeLabel;html=1;align=center;verticalAlign=middle;resizable=0;points=[];fontSize=11;fontFamily=Helvetica;fontColor=default;" connectable="0" vertex="1" parent="2sm-n9XB5zmbt778GoJv-43">
          <mxGeometry x="-0.0077" y="-1" relative="1" as="geometry">
            <mxPoint as="offset" />
          </mxGeometry>
        </mxCell>
        <mxCell id="dsaff5UCi93PaBDCJ_9--11" value="&lt;font style=&quot;font-size: 11px;&quot;&gt;meets with&lt;/font&gt;" style="rhombus;whiteSpace=wrap;html=1;" vertex="1" parent="1">
          <mxGeometry x="655.2500000000001" y="-90" width="84.75" height="49.38" as="geometry" />
        </mxCell>
        <mxCell id="dsaff5UCi93PaBDCJ_9--14" style="edgeStyle=none;shape=connector;rounded=0;orthogonalLoop=1;jettySize=auto;html=1;exitX=0;exitY=0.5;exitDx=0;exitDy=0;entryX=0.25;entryY=0;entryDx=0;entryDy=0;labelBackgroundColor=default;strokeColor=default;fontFamily=Helvetica;fontSize=11;fontColor=default;endArrow=none;endFill=0;" edge="1" parent="1" source="dsaff5UCi93PaBDCJ_9--11" target="V0jLRe1Iar0bfor6HaaD-19">
          <mxGeometry relative="1" as="geometry">
            <mxPoint x="1135" y="655" as="sourcePoint" />
            <mxPoint x="1305" y="359" as="targetPoint" />
            <Array as="points">
              <mxPoint x="160" y="100" />
            </Array>
          </mxGeometry>
        </mxCell>
        <mxCell id="dsaff5UCi93PaBDCJ_9--17" value="(0, N)" style="edgeLabel;html=1;align=center;verticalAlign=middle;resizable=0;points=[];" connectable="0" vertex="1" parent="dsaff5UCi93PaBDCJ_9--14">
          <mxGeometry x="-0.1311" y="-1" relative="1" as="geometry">
            <mxPoint x="-1" as="offset" />
          </mxGeometry>
        </mxCell>
        <mxCell id="dsaff5UCi93PaBDCJ_9--12" style="edgeStyle=none;shape=connector;rounded=0;orthogonalLoop=1;jettySize=auto;html=1;exitX=1;exitY=0.5;exitDx=0;exitDy=0;labelBackgroundColor=default;strokeColor=default;fontFamily=Helvetica;fontSize=11;fontColor=default;endArrow=none;endFill=0;" edge="1" parent="1" source="dsaff5UCi93PaBDCJ_9--11" target="V0jLRe1Iar0bfor6HaaD-11">
          <mxGeometry relative="1" as="geometry">
            <mxPoint x="1150" y="558" as="sourcePoint" />
            <mxPoint x="1294" y="361" as="targetPoint" />
            <Array as="points">
              <mxPoint x="1080" y="70" />
            </Array>
          </mxGeometry>
        </mxCell>
        <mxCell id="dsaff5UCi93PaBDCJ_9--18" value="(1, N)" style="edgeLabel;html=1;align=center;verticalAlign=middle;resizable=0;points=[];" connectable="0" vertex="1" parent="dsaff5UCi93PaBDCJ_9--12">
          <mxGeometry x="-0.2894" y="2" relative="1" as="geometry">
            <mxPoint as="offset" />
          </mxGeometry>
        </mxCell>
        <mxCell id="QLAGr_2DhoVd9Ir-5f-1-8" style="edgeStyle=orthogonalEdgeStyle;rounded=0;orthogonalLoop=1;jettySize=auto;html=1;endArrow=none;endFill=0;entryX=0;entryY=0.25;entryDx=0;entryDy=0;exitX=0.75;exitY=1;exitDx=0;exitDy=0;" edge="1" parent="1" source="6mL3hcfkqaH-60hYp9Ra-34">
          <mxGeometry relative="1" as="geometry">
            <mxPoint x="1220" y="1208" as="sourcePoint" />
            <mxPoint x="249.93" y="461.2399999999999" as="targetPoint" />
            <Array as="points">
              <mxPoint x="1220" y="1208" />
              <mxPoint x="-180" y="1208" />
              <mxPoint x="-180" y="450" />
              <mxPoint x="250" y="450" />
            </Array>
          </mxGeometry>
        </mxCell>
        <mxCell id="XhkTKOobNBqWBhGaZhEt-10" value="(1, 1)" style="edgeLabel;html=1;align=center;verticalAlign=middle;resizable=0;points=[];fontSize=11;fontFamily=Helvetica;fontColor=default;" connectable="0" vertex="1" parent="QLAGr_2DhoVd9Ir-5f-1-8">
          <mxGeometry x="0.0582" y="2" relative="1" as="geometry">
            <mxPoint x="-1" as="offset" />
          </mxGeometry>
        </mxCell>
        <mxCell id="XhkTKOobNBqWBhGaZhEt-11" value="(1, N)" style="edgeLabel;html=1;align=center;verticalAlign=middle;resizable=0;points=[];fontSize=11;fontFamily=Helvetica;fontColor=default;" connectable="0" vertex="1" parent="QLAGr_2DhoVd9Ir-5f-1-8">
          <mxGeometry x="-0.688" y="-3" relative="1" as="geometry">
            <mxPoint x="1" as="offset" />
          </mxGeometry>
        </mxCell>
        <mxCell id="QLAGr_2DhoVd9Ir-5f-1-10" value="lives at" style="rhombus;whiteSpace=wrap;html=1;" vertex="1" parent="1">
          <mxGeometry x="636.25" y="1190" width="80" height="37.5" as="geometry" />
        </mxCell>
        <mxCell id="fizoiTwt6G3LqmmY5jpk-15" value="" style="edgeStyle=none;shape=connector;rounded=0;orthogonalLoop=1;jettySize=auto;html=1;exitX=0.5;exitY=1;exitDx=0;exitDy=0;labelBackgroundColor=default;strokeColor=default;fontFamily=Helvetica;fontSize=11;fontColor=default;endArrow=none;endFill=0;" edge="1" parent="1" source="V0jLRe1Iar0bfor6HaaD-17" target="B8XEB3wURoFLUdZ86-zd-76">
          <mxGeometry relative="1" as="geometry">
            <mxPoint x="368" y="266" as="sourcePoint" />
            <mxPoint x="330" y="170" as="targetPoint" />
            <Array as="points" />
          </mxGeometry>
        </mxCell>
        <mxCell id="B8XEB3wURoFLUdZ86-zd-76" value="Location Posted" style="ellipse;shape=doubleEllipse;margin=3;whiteSpace=wrap;html=1;align=center;fontFamily=Helvetica;fontSize=11;fontColor=default;" vertex="1" parent="1">
          <mxGeometry x="377.5" y="150.00000000000003" width="100" height="40" as="geometry" />
        </mxCell>
        <mxCell id="fizoiTwt6G3LqmmY5jpk-34" style="edgeStyle=none;curved=1;rounded=0;orthogonalLoop=1;jettySize=auto;html=1;entryX=0;entryY=0.5;entryDx=0;entryDy=0;fontSize=12;startSize=8;endSize=8;" edge="1" parent="1" source="V0jLRe1Iar0bfor6HaaD-27" target="V0jLRe1Iar0bfor6HaaD-27">
          <mxGeometry relative="1" as="geometry" />
        </mxCell>
        <mxCell id="XhkTKOobNBqWBhGaZhEt-7" style="edgeStyle=none;shape=connector;rounded=0;orthogonalLoop=1;jettySize=auto;html=1;exitX=1;exitY=0.5;exitDx=0;exitDy=0;entryX=0;entryY=0.5;entryDx=0;entryDy=0;labelBackgroundColor=default;strokeColor=default;align=center;verticalAlign=middle;fontFamily=Helvetica;fontSize=11;fontColor=default;endArrow=none;endFill=0;" edge="1" parent="1" source="QLAGr_2DhoVd9Ir-5f-1-13" target="6mL3hcfkqaH-60hYp9Ra-34">
          <mxGeometry relative="1" as="geometry" />
        </mxCell>
        <mxCell id="XhkTKOobNBqWBhGaZhEt-8" value="(0, N)" style="edgeLabel;html=1;align=center;verticalAlign=middle;resizable=0;points=[];fontSize=11;fontFamily=Helvetica;fontColor=default;" connectable="0" vertex="1" parent="XhkTKOobNBqWBhGaZhEt-7">
          <mxGeometry x="-0.1663" y="-1" relative="1" as="geometry">
            <mxPoint as="offset" />
          </mxGeometry>
        </mxCell>
        <mxCell id="QLAGr_2DhoVd9Ir-5f-1-13" value="located at" style="shape=rhombus;perimeter=rhombusPerimeter;whiteSpace=wrap;html=1;align=center;" vertex="1" parent="1">
          <mxGeometry x="825.5" y="830" width="104.5" height="36.5" as="geometry" />
        </mxCell>
        <mxCell id="QLAGr_2DhoVd9Ir-5f-1-15" value="" style="endArrow=none;html=1;rounded=0;entryX=0;entryY=0.5;entryDx=0;entryDy=0;exitX=0.25;exitY=1;exitDx=0;exitDy=0;" edge="1" parent="1" source="V0jLRe1Iar0bfor6HaaD-1" target="QLAGr_2DhoVd9Ir-5f-1-13">
          <mxGeometry width="50" height="50" relative="1" as="geometry">
            <mxPoint x="1160" y="958" as="sourcePoint" />
            <mxPoint x="914" y="867" as="targetPoint" />
            <Array as="points">
              <mxPoint x="700" y="780" />
              <mxPoint x="680" y="790" />
            </Array>
          </mxGeometry>
        </mxCell>
        <mxCell id="XhkTKOobNBqWBhGaZhEt-9" value="(1, 1)" style="edgeLabel;html=1;align=center;verticalAlign=middle;resizable=0;points=[];fontSize=11;fontFamily=Helvetica;fontColor=default;" connectable="0" vertex="1" parent="QLAGr_2DhoVd9Ir-5f-1-15">
          <mxGeometry x="0.5237" y="-1" relative="1" as="geometry">
            <mxPoint as="offset" />
          </mxGeometry>
        </mxCell>
        <mxCell id="LVwt1XQIKeo-heI4AhYJ-1" value="&lt;u&gt;PID&lt;/u&gt;" style="ellipse;whiteSpace=wrap;html=1;" vertex="1" parent="1">
          <mxGeometry x="600" y="478.12" width="60" height="31.88" as="geometry" />
        </mxCell>
        <mxCell id="LVwt1XQIKeo-heI4AhYJ-2" value="" style="endArrow=none;html=1;rounded=0;exitX=0.414;exitY=-0.027;exitDx=0;exitDy=0;exitPerimeter=0;" edge="1" parent="1" source="V0jLRe1Iar0bfor6HaaD-1" target="LVwt1XQIKeo-heI4AhYJ-1">
          <mxGeometry width="50" height="50" relative="1" as="geometry">
            <mxPoint x="720" y="580" as="sourcePoint" />
            <mxPoint x="770" y="530" as="targetPoint" />
          </mxGeometry>
        </mxCell>
        <mxCell id="LVwt1XQIKeo-heI4AhYJ-3" value="&lt;u&gt;ProjectTypeName&lt;/u&gt;" style="ellipse;whiteSpace=wrap;html=1;" vertex="1" parent="1">
          <mxGeometry x="900" y="336.24" width="120" height="29.38" as="geometry" />
        </mxCell>
        <mxCell id="LVwt1XQIKeo-heI4AhYJ-4" value="" style="endArrow=none;html=1;rounded=0;exitX=0.25;exitY=0;exitDx=0;exitDy=0;" edge="1" parent="1" source="6mL3hcfkqaH-60hYp9Ra-4" target="LVwt1XQIKeo-heI4AhYJ-3">
          <mxGeometry width="50" height="50" relative="1" as="geometry">
            <mxPoint x="710" y="510" as="sourcePoint" />
            <mxPoint x="760" y="460" as="targetPoint" />
          </mxGeometry>
        </mxCell>
        <mxCell id="LVwt1XQIKeo-heI4AhYJ-5" value="&lt;u&gt;ClientID&lt;/u&gt;" style="ellipse;whiteSpace=wrap;html=1;" vertex="1" parent="1">
          <mxGeometry x="1200" y="170.92000000000002" width="60" height="40.95" as="geometry" />
        </mxCell>
        <mxCell id="5lizbr5pHaU8bW4rwPdO-1" value="" style="endArrow=none;html=1;rounded=0;" edge="1" parent="1" target="6mL3hcfkqaH-60hYp9Ra-34">
          <mxGeometry width="50" height="50" relative="1" as="geometry">
            <mxPoint x="1095.5" y="970.77" as="sourcePoint" />
            <mxPoint x="1145.5" y="920.77" as="targetPoint" />
          </mxGeometry>
        </mxCell>
        <mxCell id="5lizbr5pHaU8bW4rwPdO-2" value="&lt;u&gt;locationID&lt;/u&gt;" style="ellipse;whiteSpace=wrap;html=1;" vertex="1" parent="1">
          <mxGeometry x="1039.75" y="960" width="70" height="50" as="geometry" />
        </mxCell>
        <mxCell id="LVwt1XQIKeo-heI4AhYJ-6" value="" style="endArrow=none;html=1;rounded=0;" edge="1" parent="1" source="V0jLRe1Iar0bfor6HaaD-11" target="LVwt1XQIKeo-heI4AhYJ-5">
          <mxGeometry width="50" height="50" relative="1" as="geometry">
            <mxPoint x="1310" y="320" as="sourcePoint" />
            <mxPoint x="1380" y="270" as="targetPoint" />
          </mxGeometry>
        </mxCell>
        <mxCell id="LVwt1XQIKeo-heI4AhYJ-7" value="&lt;u&gt;PONumber&lt;/u&gt;" style="ellipse;whiteSpace=wrap;html=1;" vertex="1" parent="1">
          <mxGeometry x="140" y="622.5" width="70" height="30" as="geometry" />
        </mxCell>
        <mxCell id="5lizbr5pHaU8bW4rwPdO-4" value="" style="endArrow=none;html=1;rounded=0;exitX=1;exitY=0.25;exitDx=0;exitDy=0;" edge="1" parent="1" source="V0jLRe1Iar0bfor6HaaD-19" target="5lizbr5pHaU8bW4rwPdO-5">
          <mxGeometry width="50" height="50" relative="1" as="geometry">
            <mxPoint x="720" y="530" as="sourcePoint" />
            <mxPoint x="450" y="440" as="targetPoint" />
          </mxGeometry>
        </mxCell>
        <mxCell id="5lizbr5pHaU8bW4rwPdO-5" value="&lt;u&gt;EmployeeID&lt;/u&gt;" style="ellipse;whiteSpace=wrap;html=1;" vertex="1" parent="1">
          <mxGeometry x="439.72" y="408.12" width="90" height="30" as="geometry" />
        </mxCell>
        <mxCell id="LVwt1XQIKeo-heI4AhYJ-8" value="" style="endArrow=none;html=1;rounded=0;exitX=1;exitY=0.25;exitDx=0;exitDy=0;" edge="1" parent="1" source="V0jLRe1Iar0bfor6HaaD-2" target="LVwt1XQIKeo-heI4AhYJ-7">
          <mxGeometry width="50" height="50" relative="1" as="geometry">
            <mxPoint x="490" y="730" as="sourcePoint" />
            <mxPoint x="540" y="680" as="targetPoint" />
          </mxGeometry>
        </mxCell>
        <mxCell id="LVwt1XQIKeo-heI4AhYJ-9" value="StartDate" style="ellipse;whiteSpace=wrap;html=1;" vertex="1" parent="1">
          <mxGeometry x="715" y="491.87" width="70" height="26.88" as="geometry" />
        </mxCell>
        <mxCell id="5lizbr5pHaU8bW4rwPdO-6" value="" style="endArrow=none;html=1;rounded=0;" edge="1" parent="1" source="V0jLRe1Iar0bfor6HaaD-11" target="5lizbr5pHaU8bW4rwPdO-12">
          <mxGeometry width="50" height="50" relative="1" as="geometry">
            <mxPoint x="1330" y="310" as="sourcePoint" />
            <mxPoint x="1270" y="220" as="targetPoint" />
          </mxGeometry>
        </mxCell>
        <mxCell id="5lizbr5pHaU8bW4rwPdO-7" value="" style="endArrow=none;html=1;rounded=0;" edge="1" parent="1" source="V0jLRe1Iar0bfor6HaaD-11" target="5lizbr5pHaU8bW4rwPdO-11">
          <mxGeometry width="50" height="50" relative="1" as="geometry">
            <mxPoint x="1320" y="320" as="sourcePoint" />
            <mxPoint x="1290" y="250" as="targetPoint" />
          </mxGeometry>
        </mxCell>
        <mxCell id="5lizbr5pHaU8bW4rwPdO-8" value="" style="endArrow=none;html=1;rounded=0;" edge="1" parent="1" source="V0jLRe1Iar0bfor6HaaD-11" target="5lizbr5pHaU8bW4rwPdO-9">
          <mxGeometry width="50" height="50" relative="1" as="geometry">
            <mxPoint x="1320" y="320" as="sourcePoint" />
            <mxPoint x="1320" y="270" as="targetPoint" />
          </mxGeometry>
        </mxCell>
        <mxCell id="5lizbr5pHaU8bW4rwPdO-9" value="Phone" style="ellipse;whiteSpace=wrap;html=1;" vertex="1" parent="1">
          <mxGeometry x="1340" y="271.87" width="60" height="30" as="geometry" />
        </mxCell>
        <mxCell id="5lizbr5pHaU8bW4rwPdO-11" value="Address" style="ellipse;whiteSpace=wrap;html=1;" vertex="1" parent="1">
          <mxGeometry x="1312" y="220" width="60" height="30" as="geometry" />
        </mxCell>
        <mxCell id="5lizbr5pHaU8bW4rwPdO-12" value="Name" style="ellipse;whiteSpace=wrap;html=1;" vertex="1" parent="1">
          <mxGeometry x="1252" y="202.95" width="60" height="30" as="geometry" />
        </mxCell>
        <mxCell id="5lizbr5pHaU8bW4rwPdO-13" value="Email" style="ellipse;whiteSpace=wrap;html=1;" vertex="1" parent="1">
          <mxGeometry x="1372" y="310.93" width="60" height="30" as="geometry" />
        </mxCell>
        <mxCell id="LVwt1XQIKeo-heI4AhYJ-13" value="Fname" style="ellipse;whiteSpace=wrap;html=1;" vertex="1" parent="1">
          <mxGeometry x="95.08" y="525.62" width="74.92" height="34.38" as="geometry" />
        </mxCell>
        <mxCell id="5lizbr5pHaU8bW4rwPdO-14" value="" style="endArrow=none;html=1;rounded=0;" edge="1" parent="1" source="V0jLRe1Iar0bfor6HaaD-11" target="5lizbr5pHaU8bW4rwPdO-13">
          <mxGeometry width="50" height="50" relative="1" as="geometry">
            <mxPoint x="1320" y="320" as="sourcePoint" />
            <mxPoint x="1400" y="230" as="targetPoint" />
          </mxGeometry>
        </mxCell>
        <mxCell id="LVwt1XQIKeo-heI4AhYJ-15" value="Lname" style="ellipse;whiteSpace=wrap;html=1;" vertex="1" parent="1">
          <mxGeometry x="135" y="566.2399999999999" width="70" height="34.38" as="geometry" />
        </mxCell>
        <mxCell id="LVwt1XQIKeo-heI4AhYJ-16" value="annualSalary" style="ellipse;whiteSpace=wrap;html=1;" vertex="1" parent="1">
          <mxGeometry x="210" y="556.62" width="90" height="34" as="geometry" />
        </mxCell>
        <mxCell id="LVwt1XQIKeo-heI4AhYJ-17" value="" style="endArrow=none;html=1;rounded=0;" edge="1" parent="1" source="LVwt1XQIKeo-heI4AhYJ-13" target="V0jLRe1Iar0bfor6HaaD-19">
          <mxGeometry width="50" height="50" relative="1" as="geometry">
            <mxPoint x="190" y="540" as="sourcePoint" />
            <mxPoint x="240" y="490" as="targetPoint" />
          </mxGeometry>
        </mxCell>
        <mxCell id="LVwt1XQIKeo-heI4AhYJ-18" value="" style="endArrow=none;html=1;rounded=0;" edge="1" parent="1" source="LVwt1XQIKeo-heI4AhYJ-15" target="V0jLRe1Iar0bfor6HaaD-19">
          <mxGeometry width="50" height="50" relative="1" as="geometry">
            <mxPoint x="430" y="620" as="sourcePoint" />
            <mxPoint x="480" y="570" as="targetPoint" />
          </mxGeometry>
        </mxCell>
        <mxCell id="LVwt1XQIKeo-heI4AhYJ-19" value="" style="endArrow=none;html=1;rounded=0;" edge="1" parent="1" source="LVwt1XQIKeo-heI4AhYJ-16" target="V0jLRe1Iar0bfor6HaaD-19">
          <mxGeometry width="50" height="50" relative="1" as="geometry">
            <mxPoint x="250" y="550" as="sourcePoint" />
            <mxPoint x="300" y="500" as="targetPoint" />
          </mxGeometry>
        </mxCell>
        <mxCell id="5lizbr5pHaU8bW4rwPdO-16" value="SuperviseeID" style="ellipse;whiteSpace=wrap;html=1;" vertex="1" parent="1">
          <mxGeometry x="-110" y="390.31" width="90" height="30" as="geometry" />
        </mxCell>
        <mxCell id="5lizbr5pHaU8bW4rwPdO-15" value="" style="endArrow=none;html=1;rounded=0;entryX=0;entryY=0.5;entryDx=0;entryDy=0;exitX=1;exitY=0.5;exitDx=0;exitDy=0;" edge="1" parent="1" source="5lizbr5pHaU8bW4rwPdO-16" target="3CGyiVarhpInRkeTOOhV-4">
          <mxGeometry width="50" height="50" relative="1" as="geometry">
            <mxPoint x="-20" y="410" as="sourcePoint" />
            <mxPoint x="-30" y="390" as="targetPoint" />
          </mxGeometry>
        </mxCell>
        <mxCell id="LVwt1XQIKeo-heI4AhYJ-21" value="sellsProjectType" style="ellipse;whiteSpace=wrap;html=1;" vertex="1" parent="1">
          <mxGeometry x="82.58" y="196.39000000000001" width="99.92" height="25.48" as="geometry" />
        </mxCell>
        <mxCell id="LVwt1XQIKeo-heI4AhYJ-22" value="" style="endArrow=none;html=1;rounded=0;" edge="1" parent="1" source="YdjfWjEURbUF6szq9cXo-1" target="LVwt1XQIKeo-heI4AhYJ-21">
          <mxGeometry width="50" height="50" relative="1" as="geometry">
            <mxPoint x="80" y="280" as="sourcePoint" />
            <mxPoint x="130" y="230" as="targetPoint" />
          </mxGeometry>
        </mxCell>
        <mxCell id="5lizbr5pHaU8bW4rwPdO-17" value="" style="endArrow=none;html=1;rounded=0;exitX=0.25;exitY=0;exitDx=0;exitDy=0;entryX=0;entryY=0;entryDx=0;entryDy=0;" edge="1" parent="1" source="6mL3hcfkqaH-60hYp9Ra-4" target="5lizbr5pHaU8bW4rwPdO-18">
          <mxGeometry width="50" height="50" relative="1" as="geometry">
            <mxPoint x="860" y="430" as="sourcePoint" />
            <mxPoint x="910" y="380" as="targetPoint" />
          </mxGeometry>
        </mxCell>
        <mxCell id="LVwt1XQIKeo-heI4AhYJ-23" value="Frequency" style="ellipse;whiteSpace=wrap;html=1;" vertex="1" parent="1">
          <mxGeometry x="653" y="196.87" width="107" height="25" as="geometry" />
        </mxCell>
        <mxCell id="5lizbr5pHaU8bW4rwPdO-18" value="minJobSquare Footage" style="ellipse;whiteSpace=wrap;html=1;" vertex="1" parent="1">
          <mxGeometry x="885" y="388.12" width="145" height="20" as="geometry" />
        </mxCell>
        <mxCell id="LVwt1XQIKeo-heI4AhYJ-24" value="" style="endArrow=none;html=1;rounded=0;" edge="1" parent="1" source="V0jLRe1Iar0bfor6HaaD-13" target="LVwt1XQIKeo-heI4AhYJ-23">
          <mxGeometry width="50" height="50" relative="1" as="geometry">
            <mxPoint x="700" y="260" as="sourcePoint" />
            <mxPoint x="750" y="210" as="targetPoint" />
          </mxGeometry>
        </mxCell>
        <mxCell id="LVwt1XQIKeo-heI4AhYJ-26" value="Materials" style="ellipse;whiteSpace=wrap;html=1;" vertex="1" parent="1">
          <mxGeometry x="723.5" y="150" width="93" height="30" as="geometry" />
        </mxCell>
        <mxCell id="LVwt1XQIKeo-heI4AhYJ-27" value="Thickness" style="ellipse;whiteSpace=wrap;html=1;" vertex="1" parent="1">
          <mxGeometry x="820" y="128.55" width="70" height="33" as="geometry" />
        </mxCell>
        <mxCell id="LVwt1XQIKeo-heI4AhYJ-28" value="" style="endArrow=none;html=1;rounded=0;" edge="1" parent="1" source="V0jLRe1Iar0bfor6HaaD-5" target="LVwt1XQIKeo-heI4AhYJ-26">
          <mxGeometry width="50" height="50" relative="1" as="geometry">
            <mxPoint x="790" y="240" as="sourcePoint" />
            <mxPoint x="840" y="190" as="targetPoint" />
          </mxGeometry>
        </mxCell>
        <mxCell id="LVwt1XQIKeo-heI4AhYJ-29" value="" style="endArrow=none;html=1;rounded=0;" edge="1" parent="1" source="V0jLRe1Iar0bfor6HaaD-5" target="LVwt1XQIKeo-heI4AhYJ-27">
          <mxGeometry width="50" height="50" relative="1" as="geometry">
            <mxPoint x="850" y="230" as="sourcePoint" />
            <mxPoint x="900" y="180" as="targetPoint" />
          </mxGeometry>
        </mxCell>
        <mxCell id="LVwt1XQIKeo-heI4AhYJ-30" value="Type" style="ellipse;whiteSpace=wrap;html=1;" vertex="1" parent="1">
          <mxGeometry x="890" y="156.87" width="50" height="25" as="geometry" />
        </mxCell>
        <mxCell id="LVwt1XQIKeo-heI4AhYJ-31" value="Technique" style="ellipse;whiteSpace=wrap;html=1;" vertex="1" parent="1">
          <mxGeometry x="940" y="181.87" width="80" height="30" as="geometry" />
        </mxCell>
        <mxCell id="LVwt1XQIKeo-heI4AhYJ-32" value="" style="endArrow=none;html=1;rounded=0;" edge="1" parent="1" source="V0jLRe1Iar0bfor6HaaD-6" target="LVwt1XQIKeo-heI4AhYJ-30">
          <mxGeometry width="50" height="50" relative="1" as="geometry">
            <mxPoint x="860" y="250" as="sourcePoint" />
            <mxPoint x="910" y="200" as="targetPoint" />
          </mxGeometry>
        </mxCell>
        <mxCell id="LVwt1XQIKeo-heI4AhYJ-33" value="" style="endArrow=none;html=1;rounded=0;" edge="1" parent="1" source="V0jLRe1Iar0bfor6HaaD-6" target="LVwt1XQIKeo-heI4AhYJ-31">
          <mxGeometry width="50" height="50" relative="1" as="geometry">
            <mxPoint x="940" y="250" as="sourcePoint" />
            <mxPoint x="990" y="200" as="targetPoint" />
          </mxGeometry>
        </mxCell>
        <mxCell id="LVwt1XQIKeo-heI4AhYJ-34" value="Thickness" style="ellipse;whiteSpace=wrap;html=1;" vertex="1" parent="1">
          <mxGeometry x="955" y="221.87" width="85" height="38.13" as="geometry" />
        </mxCell>
        <mxCell id="LVwt1XQIKeo-heI4AhYJ-35" value="Width" style="ellipse;whiteSpace=wrap;html=1;" vertex="1" parent="1">
          <mxGeometry x="970" y="271.87" width="85" height="38.13" as="geometry" />
        </mxCell>
        <mxCell id="LVwt1XQIKeo-heI4AhYJ-36" value="" style="endArrow=none;html=1;rounded=0;" edge="1" parent="1" source="V0jLRe1Iar0bfor6HaaD-7" target="LVwt1XQIKeo-heI4AhYJ-34">
          <mxGeometry width="50" height="50" relative="1" as="geometry">
            <mxPoint x="910" y="330" as="sourcePoint" />
            <mxPoint x="960" y="280" as="targetPoint" />
          </mxGeometry>
        </mxCell>
        <mxCell id="LVwt1XQIKeo-heI4AhYJ-37" value="" style="endArrow=none;html=1;rounded=0;" edge="1" parent="1" source="V0jLRe1Iar0bfor6HaaD-7" target="LVwt1XQIKeo-heI4AhYJ-35">
          <mxGeometry width="50" height="50" relative="1" as="geometry">
            <mxPoint x="910" y="340" as="sourcePoint" />
            <mxPoint x="960" y="290" as="targetPoint" />
          </mxGeometry>
        </mxCell>
        <mxCell id="LVwt1XQIKeo-heI4AhYJ-38" value="Date" style="ellipse;whiteSpace=wrap;html=1;" vertex="1" parent="1">
          <mxGeometry x="1020" y="610" width="80" height="30" as="geometry" />
        </mxCell>
        <mxCell id="5lizbr5pHaU8bW4rwPdO-20" value="&lt;u&gt;FeedbackID&lt;/u&gt;" style="ellipse;whiteSpace=wrap;html=1;" vertex="1" parent="1">
          <mxGeometry x="1040" y="491.87" width="120" height="36.88" as="geometry" />
        </mxCell>
        <mxCell id="LVwt1XQIKeo-heI4AhYJ-40" value="Description" style="ellipse;whiteSpace=wrap;html=1;" vertex="1" parent="1">
          <mxGeometry x="1020" y="652.5" width="80" height="29.38" as="geometry" />
        </mxCell>
        <mxCell id="LVwt1XQIKeo-heI4AhYJ-41" value="" style="endArrow=none;html=1;rounded=0;" edge="1" parent="1" source="n0eZ3YQ4kbXayGB8iofP-1" target="LVwt1XQIKeo-heI4AhYJ-40">
          <mxGeometry width="50" height="50" relative="1" as="geometry">
            <mxPoint x="970" y="710" as="sourcePoint" />
            <mxPoint x="1020" y="660" as="targetPoint" />
          </mxGeometry>
        </mxCell>
        <mxCell id="LVwt1XQIKeo-heI4AhYJ-43" value="" style="endArrow=none;html=1;rounded=0;" edge="1" parent="1" source="V0jLRe1Iar0bfor6HaaD-1" target="LVwt1XQIKeo-heI4AhYJ-9">
          <mxGeometry width="50" height="50" relative="1" as="geometry">
            <mxPoint x="680" y="560" as="sourcePoint" />
            <mxPoint x="730" y="510" as="targetPoint" />
          </mxGeometry>
        </mxCell>
        <mxCell id="5lizbr5pHaU8bW4rwPdO-21" value="" style="endArrow=none;html=1;rounded=0;exitX=0.5;exitY=0;exitDx=0;exitDy=0;" edge="1" parent="1" source="5lizbr5pHaU8bW4rwPdO-20" target="m66RHuCAahKeRWMkVwcQ-6">
          <mxGeometry width="50" height="50" relative="1" as="geometry">
            <mxPoint x="1080" y="680" as="sourcePoint" />
            <mxPoint x="1130" y="630" as="targetPoint" />
          </mxGeometry>
        </mxCell>
        <mxCell id="5lizbr5pHaU8bW4rwPdO-22" value="Date" style="ellipse;whiteSpace=wrap;html=1;" vertex="1" parent="1">
          <mxGeometry x="1090" y="448.12" width="80" height="30" as="geometry" />
        </mxCell>
        <mxCell id="5lizbr5pHaU8bW4rwPdO-24" value="Description" style="ellipse;whiteSpace=wrap;html=1;" vertex="1" parent="1">
          <mxGeometry x="980" y="528.75" width="80" height="29.38" as="geometry" />
        </mxCell>
        <mxCell id="LVwt1XQIKeo-heI4AhYJ-44" value="" style="endArrow=none;html=1;rounded=0;" edge="1" parent="1" source="n0eZ3YQ4kbXayGB8iofP-1" target="LVwt1XQIKeo-heI4AhYJ-38">
          <mxGeometry width="50" height="50" relative="1" as="geometry">
            <mxPoint x="980" y="640" as="sourcePoint" />
            <mxPoint x="1000" y="600" as="targetPoint" />
          </mxGeometry>
        </mxCell>
        <mxCell id="5lizbr5pHaU8bW4rwPdO-26" value="" style="endArrow=none;html=1;rounded=0;exitX=0;exitY=0.5;exitDx=0;exitDy=0;entryX=1;entryY=0.5;entryDx=0;entryDy=0;" edge="1" parent="1" source="5lizbr5pHaU8bW4rwPdO-22" target="m66RHuCAahKeRWMkVwcQ-6">
          <mxGeometry width="50" height="50" relative="1" as="geometry">
            <mxPoint x="1030" y="539" as="sourcePoint" />
            <mxPoint x="1050" y="488" as="targetPoint" />
          </mxGeometry>
        </mxCell>
        <mxCell id="LVwt1XQIKeo-heI4AhYJ-45" value="DateIssued" style="ellipse;whiteSpace=wrap;html=1;" vertex="1" parent="1">
          <mxGeometry x="820" y="753.27" width="80" height="30" as="geometry" />
        </mxCell>
        <mxCell id="5lizbr5pHaU8bW4rwPdO-28" value="" style="endArrow=none;html=1;rounded=0;exitX=0.454;exitY=0.011;exitDx=0;exitDy=0;exitPerimeter=0;entryX=0.327;entryY=0.963;entryDx=0;entryDy=0;entryPerimeter=0;" edge="1" parent="1" source="B8XEB3wURoFLUdZ86-zd-67" target="5lizbr5pHaU8bW4rwPdO-30">
          <mxGeometry width="50" height="50" relative="1" as="geometry">
            <mxPoint x="470" y="910" as="sourcePoint" />
            <mxPoint x="400" y="840" as="targetPoint" />
          </mxGeometry>
        </mxCell>
        <mxCell id="5lizbr5pHaU8bW4rwPdO-25" value="" style="endArrow=none;html=1;rounded=0;exitX=0.5;exitY=0;exitDx=0;exitDy=0;entryX=0.5;entryY=1;entryDx=0;entryDy=0;" edge="1" parent="1" source="5lizbr5pHaU8bW4rwPdO-24" target="m66RHuCAahKeRWMkVwcQ-6">
          <mxGeometry width="50" height="50" relative="1" as="geometry">
            <mxPoint x="1050" y="550" as="sourcePoint" />
            <mxPoint x="1100" y="500" as="targetPoint" />
          </mxGeometry>
        </mxCell>
        <mxCell id="5lizbr5pHaU8bW4rwPdO-29" value="" style="endArrow=none;html=1;rounded=0;exitX=0.5;exitY=0;exitDx=0;exitDy=0;entryX=0;entryY=1;entryDx=0;entryDy=0;" edge="1" parent="1" source="B8XEB3wURoFLUdZ86-zd-67" target="5lizbr5pHaU8bW4rwPdO-31">
          <mxGeometry width="50" height="50" relative="1" as="geometry">
            <mxPoint x="470" y="910" as="sourcePoint" />
            <mxPoint x="460" y="840" as="targetPoint" />
          </mxGeometry>
        </mxCell>
        <mxCell id="5lizbr5pHaU8bW4rwPdO-30" value="&lt;u&gt;MaterialID&lt;/u&gt;" style="ellipse;whiteSpace=wrap;html=1;" vertex="1" parent="1">
          <mxGeometry x="377.5" y="810" width="80" height="30" as="geometry" />
        </mxCell>
        <mxCell id="LVwt1XQIKeo-heI4AhYJ-46" value="" style="endArrow=none;html=1;rounded=0;" edge="1" parent="1" source="LVwt1XQIKeo-heI4AhYJ-45" target="ytcm5A7RizO1AG_LOwBd-26">
          <mxGeometry width="50" height="50" relative="1" as="geometry">
            <mxPoint x="870" y="770" as="sourcePoint" />
            <mxPoint x="920" y="720" as="targetPoint" />
          </mxGeometry>
        </mxCell>
        <mxCell id="5lizbr5pHaU8bW4rwPdO-31" value="Name" style="ellipse;whiteSpace=wrap;html=1;" vertex="1" parent="1">
          <mxGeometry x="460" y="823.27" width="60" height="20" as="geometry" />
        </mxCell>
        <mxCell id="LVwt1XQIKeo-heI4AhYJ-47" value="&lt;u&gt;InspectorID&lt;/u&gt;" style="ellipse;whiteSpace=wrap;html=1;" vertex="1" parent="1">
          <mxGeometry x="790" y="789.38" width="85" height="35.62" as="geometry" />
        </mxCell>
        <mxCell id="LVwt1XQIKeo-heI4AhYJ-48" value="" style="endArrow=none;html=1;rounded=0;" edge="1" parent="1" source="LVwt1XQIKeo-heI4AhYJ-47" target="m66RHuCAahKeRWMkVwcQ-24">
          <mxGeometry width="50" height="50" relative="1" as="geometry">
            <mxPoint x="770" y="820" as="sourcePoint" />
            <mxPoint x="820" y="770" as="targetPoint" />
          </mxGeometry>
        </mxCell>
        <mxCell id="5lizbr5pHaU8bW4rwPdO-32" value="" style="endArrow=none;html=1;rounded=0;exitX=0.75;exitY=1;exitDx=0;exitDy=0;entryX=0.5;entryY=0;entryDx=0;entryDy=0;" edge="1" parent="1" source="B8XEB3wURoFLUdZ86-zd-66" target="5lizbr5pHaU8bW4rwPdO-33">
          <mxGeometry width="50" height="50" relative="1" as="geometry">
            <mxPoint x="660" y="940" as="sourcePoint" />
            <mxPoint x="590" y="1000" as="targetPoint" />
          </mxGeometry>
        </mxCell>
        <mxCell id="5lizbr5pHaU8bW4rwPdO-33" value="Itemname" style="ellipse;whiteSpace=wrap;html=1;" vertex="1" parent="1">
          <mxGeometry x="507.5" y="995" width="120" height="30" as="geometry" />
        </mxCell>
        <mxCell id="LVwt1XQIKeo-heI4AhYJ-49" value="&lt;u&gt;ReportID&lt;/u&gt;" style="ellipse;whiteSpace=wrap;html=1;" vertex="1" parent="1">
          <mxGeometry x="905.5" y="749.38" width="74.5" height="30.62" as="geometry" />
        </mxCell>
        <mxCell id="LVwt1XQIKeo-heI4AhYJ-50" value="" style="endArrow=none;html=1;rounded=0;" edge="1" parent="1" source="LVwt1XQIKeo-heI4AhYJ-49" target="ytcm5A7RizO1AG_LOwBd-26">
          <mxGeometry width="50" height="50" relative="1" as="geometry">
            <mxPoint x="900" y="760" as="sourcePoint" />
            <mxPoint x="950" y="710" as="targetPoint" />
          </mxGeometry>
        </mxCell>
        <mxCell id="LVwt1XQIKeo-heI4AhYJ-51" value="Violations" style="ellipse;whiteSpace=wrap;html=1;" vertex="1" parent="1">
          <mxGeometry x="1180" y="636" width="100" height="34" as="geometry" />
        </mxCell>
        <mxCell id="5lizbr5pHaU8bW4rwPdO-34" value="" style="endArrow=none;html=1;rounded=0;exitX=0.25;exitY=0;exitDx=0;exitDy=0;entryX=0.5;entryY=1;entryDx=0;entryDy=0;" edge="1" parent="1" source="6mL3hcfkqaH-60hYp9Ra-36" target="5lizbr5pHaU8bW4rwPdO-35">
          <mxGeometry width="50" height="50" relative="1" as="geometry">
            <mxPoint x="1120" y="1050" as="sourcePoint" />
            <mxPoint x="940" y="1030" as="targetPoint" />
          </mxGeometry>
        </mxCell>
        <mxCell id="LVwt1XQIKeo-heI4AhYJ-52" value="" style="endArrow=none;html=1;rounded=0;" edge="1" parent="1" source="V0jLRe1Iar0bfor6HaaD-23" target="LVwt1XQIKeo-heI4AhYJ-51">
          <mxGeometry width="50" height="50" relative="1" as="geometry">
            <mxPoint x="1200" y="740" as="sourcePoint" />
            <mxPoint x="1250" y="690" as="targetPoint" />
          </mxGeometry>
        </mxCell>
        <mxCell id="5lizbr5pHaU8bW4rwPdO-35" value="&lt;u&gt;WarehouseID&lt;/u&gt;" style="ellipse;whiteSpace=wrap;html=1;" vertex="1" parent="1">
          <mxGeometry x="900" y="980" width="120" height="30" as="geometry" />
        </mxCell>
        <mxCell id="5lizbr5pHaU8bW4rwPdO-36" value="" style="endArrow=none;html=1;rounded=0;exitX=0.75;exitY=1;exitDx=0;exitDy=0;" edge="1" parent="1" source="B8XEB3wURoFLUdZ86-zd-66" target="5lizbr5pHaU8bW4rwPdO-37">
          <mxGeometry width="50" height="50" relative="1" as="geometry">
            <mxPoint x="710" y="1020" as="sourcePoint" />
            <mxPoint x="620" y="990" as="targetPoint" />
          </mxGeometry>
        </mxCell>
        <mxCell id="5lizbr5pHaU8bW4rwPdO-37" value="Quantity" style="ellipse;whiteSpace=wrap;html=1;" vertex="1" parent="1">
          <mxGeometry x="627.5" y="1030" width="53.75" height="30" as="geometry" />
        </mxCell>
        <mxCell id="5lizbr5pHaU8bW4rwPdO-38" value="Issue" style="ellipse;whiteSpace=wrap;html=1;" vertex="1" parent="1">
          <mxGeometry x="655.25" y="980" width="53.75" height="30" as="geometry" />
        </mxCell>
        <mxCell id="5lizbr5pHaU8bW4rwPdO-39" value="" style="endArrow=none;html=1;rounded=0;entryX=0.5;entryY=0;entryDx=0;entryDy=0;exitX=0.75;exitY=1;exitDx=0;exitDy=0;" edge="1" parent="1" source="B8XEB3wURoFLUdZ86-zd-66" target="5lizbr5pHaU8bW4rwPdO-38">
          <mxGeometry width="50" height="50" relative="1" as="geometry">
            <mxPoint x="630" y="920" as="sourcePoint" />
            <mxPoint x="630" y="990" as="targetPoint" />
          </mxGeometry>
        </mxCell>
        <mxCell id="5lizbr5pHaU8bW4rwPdO-40" value="" style="endArrow=none;html=1;rounded=0;exitX=0.25;exitY=1;exitDx=0;exitDy=0;entryX=1;entryY=0;entryDx=0;entryDy=0;" edge="1" parent="1" source="V0jLRe1Iar0bfor6HaaD-15" target="5lizbr5pHaU8bW4rwPdO-47">
          <mxGeometry width="50" height="50" relative="1" as="geometry">
            <mxPoint x="440" y="930" as="sourcePoint" />
            <mxPoint x="130" y="1020" as="targetPoint" />
          </mxGeometry>
        </mxCell>
        <mxCell id="5lizbr5pHaU8bW4rwPdO-41" value="" style="endArrow=none;html=1;rounded=0;exitX=1;exitY=0;exitDx=0;exitDy=0;" edge="1" parent="1" source="5lizbr5pHaU8bW4rwPdO-46">
          <mxGeometry width="50" height="50" relative="1" as="geometry">
            <mxPoint x="220" y="980" as="sourcePoint" />
            <mxPoint x="300" y="860" as="targetPoint" />
          </mxGeometry>
        </mxCell>
        <mxCell id="5lizbr5pHaU8bW4rwPdO-42" value="" style="endArrow=none;html=1;rounded=0;exitX=1;exitY=0;exitDx=0;exitDy=0;" edge="1" parent="1" source="5lizbr5pHaU8bW4rwPdO-45">
          <mxGeometry width="50" height="50" relative="1" as="geometry">
            <mxPoint x="210" y="1030" as="sourcePoint" />
            <mxPoint x="300" y="860" as="targetPoint" />
          </mxGeometry>
        </mxCell>
        <mxCell id="5lizbr5pHaU8bW4rwPdO-43" value="" style="endArrow=none;html=1;rounded=0;entryX=0.25;entryY=1;entryDx=0;entryDy=0;exitX=1;exitY=0;exitDx=0;exitDy=0;" edge="1" parent="1" source="5lizbr5pHaU8bW4rwPdO-44" target="V0jLRe1Iar0bfor6HaaD-15">
          <mxGeometry width="50" height="50" relative="1" as="geometry">
            <mxPoint x="210" y="1070" as="sourcePoint" />
            <mxPoint x="320" y="880" as="targetPoint" />
          </mxGeometry>
        </mxCell>
        <mxCell id="5lizbr5pHaU8bW4rwPdO-44" value="Phone" style="ellipse;whiteSpace=wrap;html=1;" vertex="1" parent="1">
          <mxGeometry x="200" y="1070" width="70" height="30" as="geometry" />
        </mxCell>
        <mxCell id="5lizbr5pHaU8bW4rwPdO-45" value="Address" style="ellipse;whiteSpace=wrap;html=1;" vertex="1" parent="1">
          <mxGeometry x="160" y="1040" width="70" height="30" as="geometry" />
        </mxCell>
        <mxCell id="5lizbr5pHaU8bW4rwPdO-46" value="Name" style="ellipse;whiteSpace=wrap;html=1;" vertex="1" parent="1">
          <mxGeometry x="150" y="990" width="70" height="30" as="geometry" />
        </mxCell>
        <mxCell id="5lizbr5pHaU8bW4rwPdO-47" value="&lt;u&gt;SupplierID&lt;/u&gt;" style="ellipse;whiteSpace=wrap;html=1;" vertex="1" parent="1">
          <mxGeometry x="70" y="995" width="70" height="30" as="geometry" />
        </mxCell>
        <mxCell id="5lizbr5pHaU8bW4rwPdO-48" value="" style="endArrow=none;html=1;rounded=0;entryX=0;entryY=0.25;entryDx=0;entryDy=0;exitX=1;exitY=0.5;exitDx=0;exitDy=0;" edge="1" parent="1" source="5lizbr5pHaU8bW4rwPdO-49" target="V0jLRe1Iar0bfor6HaaD-21">
          <mxGeometry width="50" height="50" relative="1" as="geometry">
            <mxPoint x="290" y="680" as="sourcePoint" />
            <mxPoint x="410" y="680" as="targetPoint" />
          </mxGeometry>
        </mxCell>
        <mxCell id="5lizbr5pHaU8bW4rwPdO-49" value="&lt;u&gt;InvoiceID&lt;/u&gt;" style="ellipse;whiteSpace=wrap;html=1;" vertex="1" parent="1">
          <mxGeometry x="205" y="663.12" width="80" height="30" as="geometry" />
        </mxCell>
        <mxCell id="5lizbr5pHaU8bW4rwPdO-51" value="Date" style="ellipse;whiteSpace=wrap;html=1;" vertex="1" parent="1">
          <mxGeometry x="210" y="700.62" width="80" height="30" as="geometry" />
        </mxCell>
        <mxCell id="LVwt1XQIKeo-heI4AhYJ-53" value="&lt;u&gt;BidID&lt;/u&gt;" style="ellipse;whiteSpace=wrap;html=1;" vertex="1" parent="1">
          <mxGeometry x="750" y="66.88" width="60" height="30" as="geometry" />
        </mxCell>
        <mxCell id="5lizbr5pHaU8bW4rwPdO-52" value="Amount" style="ellipse;whiteSpace=wrap;html=1;" vertex="1" parent="1">
          <mxGeometry x="290" y="713.27" width="80" height="30" as="geometry" />
        </mxCell>
        <mxCell id="5lizbr5pHaU8bW4rwPdO-53" value="" style="endArrow=none;html=1;rounded=0;exitX=1;exitY=0;exitDx=0;exitDy=0;entryX=0;entryY=0.5;entryDx=0;entryDy=0;" edge="1" parent="1" source="5lizbr5pHaU8bW4rwPdO-51" target="V0jLRe1Iar0bfor6HaaD-21">
          <mxGeometry width="50" height="50" relative="1" as="geometry">
            <mxPoint x="360" y="730" as="sourcePoint" />
            <mxPoint x="410" y="680" as="targetPoint" />
          </mxGeometry>
        </mxCell>
        <mxCell id="LVwt1XQIKeo-heI4AhYJ-54" value="" style="endArrow=none;html=1;rounded=0;" edge="1" parent="1" source="LVwt1XQIKeo-heI4AhYJ-53" target="V0jLRe1Iar0bfor6HaaD-12">
          <mxGeometry width="50" height="50" relative="1" as="geometry">
            <mxPoint x="850" y="100" as="sourcePoint" />
            <mxPoint x="900" y="50" as="targetPoint" />
          </mxGeometry>
        </mxCell>
        <mxCell id="LVwt1XQIKeo-heI4AhYJ-55" value="bidAmount" style="ellipse;whiteSpace=wrap;html=1;" vertex="1" parent="1">
          <mxGeometry x="820" y="70" width="90" height="40" as="geometry" />
        </mxCell>
        <mxCell id="5lizbr5pHaU8bW4rwPdO-54" value="" style="endArrow=none;html=1;rounded=0;exitX=0.5;exitY=0;exitDx=0;exitDy=0;entryX=0.5;entryY=1;entryDx=0;entryDy=0;" edge="1" parent="1" source="5lizbr5pHaU8bW4rwPdO-52" target="V0jLRe1Iar0bfor6HaaD-21">
          <mxGeometry width="50" height="50" relative="1" as="geometry">
            <mxPoint x="360" y="730" as="sourcePoint" />
            <mxPoint x="410" y="680" as="targetPoint" />
          </mxGeometry>
        </mxCell>
        <mxCell id="LVwt1XQIKeo-heI4AhYJ-57" value="" style="endArrow=none;html=1;rounded=0;" edge="1" parent="1" source="LVwt1XQIKeo-heI4AhYJ-55" target="V0jLRe1Iar0bfor6HaaD-12">
          <mxGeometry width="50" height="50" relative="1" as="geometry">
            <mxPoint x="920" y="170" as="sourcePoint" />
            <mxPoint x="970" y="120" as="targetPoint" />
          </mxGeometry>
        </mxCell>
        <mxCell id="5lizbr5pHaU8bW4rwPdO-55" value="" style="endArrow=none;html=1;rounded=0;entryX=0.5;entryY=1;entryDx=0;entryDy=0;exitX=0;exitY=1;exitDx=0;exitDy=0;" edge="1" parent="1" source="5lizbr5pHaU8bW4rwPdO-57" target="V0jLRe1Iar0bfor6HaaD-17">
          <mxGeometry width="50" height="50" relative="1" as="geometry">
            <mxPoint x="340" y="150" as="sourcePoint" />
            <mxPoint x="560" y="240" as="targetPoint" />
          </mxGeometry>
        </mxCell>
        <mxCell id="5lizbr5pHaU8bW4rwPdO-56" value="" style="endArrow=none;html=1;rounded=0;entryX=0.5;entryY=1;entryDx=0;entryDy=0;exitX=0;exitY=1;exitDx=0;exitDy=0;" edge="1" parent="1" source="5lizbr5pHaU8bW4rwPdO-59" target="V0jLRe1Iar0bfor6HaaD-17">
          <mxGeometry width="50" height="50" relative="1" as="geometry">
            <mxPoint x="290" y="110" as="sourcePoint" />
            <mxPoint x="560" y="240" as="targetPoint" />
          </mxGeometry>
        </mxCell>
        <mxCell id="5lizbr5pHaU8bW4rwPdO-57" value="medium" style="ellipse;whiteSpace=wrap;html=1;" vertex="1" parent="1">
          <mxGeometry x="340" y="120" width="75" height="30" as="geometry" />
        </mxCell>
        <mxCell id="5lizbr5pHaU8bW4rwPdO-59" value="description" style="ellipse;whiteSpace=wrap;html=1;" vertex="1" parent="1">
          <mxGeometry x="300" y="90" width="70" height="30" as="geometry" />
        </mxCell>
        <mxCell id="5lizbr5pHaU8bW4rwPdO-60" value="" style="endArrow=none;html=1;rounded=0;exitX=0.5;exitY=1;exitDx=0;exitDy=0;" edge="1" parent="1" source="V0jLRe1Iar0bfor6HaaD-17" target="5lizbr5pHaU8bW4rwPdO-61">
          <mxGeometry width="50" height="50" relative="1" as="geometry">
            <mxPoint x="400" y="200" as="sourcePoint" />
            <mxPoint x="320" y="140" as="targetPoint" />
          </mxGeometry>
        </mxCell>
        <mxCell id="5lizbr5pHaU8bW4rwPdO-61" value="&lt;u&gt;AdID&lt;/u&gt;" style="ellipse;whiteSpace=wrap;html=1;" vertex="1" parent="1">
          <mxGeometry x="285" y="146.87" width="50" height="20" as="geometry" />
        </mxCell>
        <mxCell id="5lizbr5pHaU8bW4rwPdO-62" value="" style="endArrow=none;html=1;rounded=0;exitX=0.5;exitY=0;exitDx=0;exitDy=0;entryX=0.5;entryY=1;entryDx=0;entryDy=0;" edge="1" parent="1" source="V0jLRe1Iar0bfor6HaaD-20" target="5lizbr5pHaU8bW4rwPdO-63">
          <mxGeometry width="50" height="50" relative="1" as="geometry">
            <mxPoint x="430" y="300" as="sourcePoint" />
            <mxPoint x="240" y="230" as="targetPoint" />
          </mxGeometry>
        </mxCell>
        <mxCell id="5lizbr5pHaU8bW4rwPdO-63" value="&lt;u&gt;ErrorRecordID&lt;/u&gt;" style="ellipse;whiteSpace=wrap;html=1;" vertex="1" parent="1">
          <mxGeometry x="277.5" y="207.02" width="100" height="21.87" as="geometry" />
        </mxCell>
        <mxCell id="5lizbr5pHaU8bW4rwPdO-65" value="description" style="ellipse;whiteSpace=wrap;html=1;" vertex="1" parent="1">
          <mxGeometry x="190" y="146.87" width="70" height="30" as="geometry" />
        </mxCell>
        <mxCell id="5lizbr5pHaU8bW4rwPdO-66" value="" style="endArrow=none;html=1;rounded=0;entryX=0.5;entryY=1;entryDx=0;entryDy=0;exitX=0;exitY=0;exitDx=0;exitDy=0;" edge="1" parent="1" source="V0jLRe1Iar0bfor6HaaD-20" target="5lizbr5pHaU8bW4rwPdO-65">
          <mxGeometry width="50" height="50" relative="1" as="geometry">
            <mxPoint x="240" y="230" as="sourcePoint" />
            <mxPoint x="380" y="180" as="targetPoint" />
          </mxGeometry>
        </mxCell>
        <mxCell id="5lizbr5pHaU8bW4rwPdO-67" value="date" style="ellipse;whiteSpace=wrap;html=1;" vertex="1" parent="1">
          <mxGeometry x="240" y="177.02" width="60" height="30" as="geometry" />
        </mxCell>
        <mxCell id="5lizbr5pHaU8bW4rwPdO-68" value="" style="endArrow=none;html=1;rounded=0;exitX=0.25;exitY=0;exitDx=0;exitDy=0;entryX=0.5;entryY=1;entryDx=0;entryDy=0;" edge="1" parent="1" source="V0jLRe1Iar0bfor6HaaD-20" target="5lizbr5pHaU8bW4rwPdO-67">
          <mxGeometry width="50" height="50" relative="1" as="geometry">
            <mxPoint x="330" y="230" as="sourcePoint" />
            <mxPoint x="380" y="180" as="targetPoint" />
          </mxGeometry>
        </mxCell>
        <mxCell id="LVwt1XQIKeo-heI4AhYJ-58" value="Item" style="ellipse;whiteSpace=wrap;html=1;" vertex="1" parent="1">
          <mxGeometry x="-110" y="595.62" width="70" height="26.88" as="geometry" />
        </mxCell>
        <mxCell id="5lizbr5pHaU8bW4rwPdO-69" value="" style="endArrow=none;html=1;rounded=0;entryX=0;entryY=0;entryDx=0;entryDy=0;exitX=0.5;exitY=1;exitDx=0;exitDy=0;" edge="1" parent="1" source="5lizbr5pHaU8bW4rwPdO-74" target="B8XEB3wURoFLUdZ86-zd-55">
          <mxGeometry width="50" height="50" relative="1" as="geometry">
            <mxPoint x="85" y="850" as="sourcePoint" />
            <mxPoint x="140" y="930" as="targetPoint" />
          </mxGeometry>
        </mxCell>
        <mxCell id="LVwt1XQIKeo-heI4AhYJ-59" value="Quantity" style="ellipse;whiteSpace=wrap;html=1;" vertex="1" parent="1">
          <mxGeometry x="-100" y="635.62" width="70" height="26.88" as="geometry" />
        </mxCell>
        <mxCell id="LVwt1XQIKeo-heI4AhYJ-60" value="Price" style="ellipse;whiteSpace=wrap;html=1;" vertex="1" parent="1">
          <mxGeometry x="-80" y="555.6199999999999" width="70" height="26.88" as="geometry" />
        </mxCell>
        <mxCell id="5lizbr5pHaU8bW4rwPdO-70" value="" style="endArrow=none;html=1;rounded=0;exitX=0.25;exitY=0;exitDx=0;exitDy=0;entryX=0.5;entryY=1;entryDx=0;entryDy=0;" edge="1" parent="1" source="B8XEB3wURoFLUdZ86-zd-55" target="5lizbr5pHaU8bW4rwPdO-73">
          <mxGeometry width="50" height="50" relative="1" as="geometry">
            <mxPoint x="230" y="910" as="sourcePoint" />
            <mxPoint x="110" y="820" as="targetPoint" />
          </mxGeometry>
        </mxCell>
        <mxCell id="5lizbr5pHaU8bW4rwPdO-71" value="" style="endArrow=none;html=1;rounded=0;exitX=0;exitY=0;exitDx=0;exitDy=0;entryX=1;entryY=1;entryDx=0;entryDy=0;" edge="1" parent="1" source="B8XEB3wURoFLUdZ86-zd-55" target="5lizbr5pHaU8bW4rwPdO-75">
          <mxGeometry width="50" height="50" relative="1" as="geometry">
            <mxPoint x="230" y="910" as="sourcePoint" />
            <mxPoint x="70" y="890" as="targetPoint" />
          </mxGeometry>
        </mxCell>
        <mxCell id="5lizbr5pHaU8bW4rwPdO-72" value="" style="endArrow=none;html=1;rounded=0;entryX=1;entryY=0.5;entryDx=0;entryDy=0;" edge="1" parent="1" target="5lizbr5pHaU8bW4rwPdO-76">
          <mxGeometry width="50" height="50" relative="1" as="geometry">
            <mxPoint x="60" y="921" as="sourcePoint" />
            <mxPoint x="70" y="920" as="targetPoint" />
          </mxGeometry>
        </mxCell>
        <mxCell id="LVwt1XQIKeo-heI4AhYJ-61" value="" style="endArrow=none;html=1;rounded=0;" edge="1" parent="1" source="LVwt1XQIKeo-heI4AhYJ-60" target="V0jLRe1Iar0bfor6HaaD-2">
          <mxGeometry width="50" height="50" relative="1" as="geometry">
            <mxPoint x="-20" y="610" as="sourcePoint" />
            <mxPoint x="30" y="560" as="targetPoint" />
          </mxGeometry>
        </mxCell>
        <mxCell id="5lizbr5pHaU8bW4rwPdO-73" value="LiasionID" style="ellipse;whiteSpace=wrap;html=1;" vertex="1" parent="1">
          <mxGeometry x="54.99999999999999" y="855" width="70" height="30" as="geometry" />
        </mxCell>
        <mxCell id="LVwt1XQIKeo-heI4AhYJ-62" value="" style="endArrow=none;html=1;rounded=0;" edge="1" parent="1" source="LVwt1XQIKeo-heI4AhYJ-58" target="V0jLRe1Iar0bfor6HaaD-2">
          <mxGeometry width="50" height="50" relative="1" as="geometry">
            <mxPoint x="-30" y="680" as="sourcePoint" />
            <mxPoint x="20" y="630" as="targetPoint" />
          </mxGeometry>
        </mxCell>
        <mxCell id="LVwt1XQIKeo-heI4AhYJ-63" value="" style="endArrow=none;html=1;rounded=0;" edge="1" parent="1" source="LVwt1XQIKeo-heI4AhYJ-59" target="V0jLRe1Iar0bfor6HaaD-2">
          <mxGeometry width="50" height="50" relative="1" as="geometry">
            <mxPoint x="380" y="750" as="sourcePoint" />
            <mxPoint x="430" y="700" as="targetPoint" />
          </mxGeometry>
        </mxCell>
        <mxCell id="5lizbr5pHaU8bW4rwPdO-74" value="name" style="ellipse;whiteSpace=wrap;html=1;" vertex="1" parent="1">
          <mxGeometry x="-9.999999999999988" y="827.5" width="70" height="30" as="geometry" />
        </mxCell>
        <mxCell id="5lizbr5pHaU8bW4rwPdO-75" value="phone" style="ellipse;whiteSpace=wrap;html=1;" vertex="1" parent="1">
          <mxGeometry x="-39.999999999999986" y="868.27" width="70" height="30" as="geometry" />
        </mxCell>
        <mxCell id="5lizbr5pHaU8bW4rwPdO-76" value="email" style="ellipse;whiteSpace=wrap;html=1;" vertex="1" parent="1">
          <mxGeometry x="-40" y="907.5" width="70" height="26.63" as="geometry" />
        </mxCell>
        <mxCell id="LVwt1XQIKeo-heI4AhYJ-64" value="&lt;u&gt;MachineryID&lt;/u&gt;" style="ellipse;whiteSpace=wrap;html=1;" vertex="1" parent="1">
          <mxGeometry x="-145" y="67" width="105" height="53" as="geometry" />
        </mxCell>
        <mxCell id="LVwt1XQIKeo-heI4AhYJ-65" value="" style="endArrow=none;html=1;rounded=0;" edge="1" parent="1" source="V0jLRe1Iar0bfor6HaaD-8" target="LVwt1XQIKeo-heI4AhYJ-64">
          <mxGeometry width="50" height="50" relative="1" as="geometry">
            <mxPoint x="-50" y="170" as="sourcePoint" />
            <mxPoint y="120" as="targetPoint" />
          </mxGeometry>
        </mxCell>
        <mxCell id="LVwt1XQIKeo-heI4AhYJ-66" value="Name" style="ellipse;whiteSpace=wrap;html=1;" vertex="1" parent="1">
          <mxGeometry x="-29.92" y="70" width="70" height="26.88" as="geometry" />
        </mxCell>
        <mxCell id="LVwt1XQIKeo-heI4AhYJ-67" value="" style="endArrow=none;html=1;rounded=0;" edge="1" parent="1" source="V0jLRe1Iar0bfor6HaaD-8" target="LVwt1XQIKeo-heI4AhYJ-66">
          <mxGeometry width="50" height="50" relative="1" as="geometry">
            <mxPoint x="20" y="140" as="sourcePoint" />
            <mxPoint x="70" y="90" as="targetPoint" />
          </mxGeometry>
        </mxCell>
        <mxCell id="LVwt1XQIKeo-heI4AhYJ-68" value="PurchaseDate" style="ellipse;whiteSpace=wrap;html=1;" vertex="1" parent="1">
          <mxGeometry x="-200" y="142.03" width="90" height="37.97" as="geometry" />
        </mxCell>
        <mxCell id="5lizbr5pHaU8bW4rwPdO-77" value="certificationDate" style="ellipse;whiteSpace=wrap;html=1;shadow=1;" vertex="1" parent="1">
          <mxGeometry x="-125" y="271.87" width="120" height="31.87" as="geometry" />
        </mxCell>
        <mxCell id="5lizbr5pHaU8bW4rwPdO-78" value="" style="endArrow=none;html=1;rounded=0;entryX=0;entryY=1;entryDx=0;entryDy=0;exitX=1;exitY=0.5;exitDx=0;exitDy=0;" edge="1" parent="1" source="5lizbr5pHaU8bW4rwPdO-77" target="3CGyiVarhpInRkeTOOhV-21">
          <mxGeometry width="50" height="50" relative="1" as="geometry">
            <mxPoint x="290" y="420" as="sourcePoint" />
            <mxPoint x="340" y="370" as="targetPoint" />
          </mxGeometry>
        </mxCell>
        <mxCell id="LVwt1XQIKeo-heI4AhYJ-69" value="Description" style="ellipse;whiteSpace=wrap;html=1;" vertex="1" parent="1">
          <mxGeometry x="50" y="96.88" width="80" height="33.12" as="geometry" />
        </mxCell>
        <mxCell id="LVwt1XQIKeo-heI4AhYJ-70" value="ownOrRent" style="ellipse;whiteSpace=wrap;html=1;" vertex="1" parent="1">
          <mxGeometry x="-150" y="196.39000000000001" width="90" height="43.13" as="geometry" />
        </mxCell>
        <mxCell id="LVwt1XQIKeo-heI4AhYJ-71" value="" style="endArrow=none;html=1;rounded=0;" edge="1" parent="1" source="LVwt1XQIKeo-heI4AhYJ-68" target="V0jLRe1Iar0bfor6HaaD-8">
          <mxGeometry width="50" height="50" relative="1" as="geometry">
            <mxPoint x="-90" y="190" as="sourcePoint" />
            <mxPoint x="-40" y="140" as="targetPoint" />
          </mxGeometry>
        </mxCell>
        <mxCell id="LVwt1XQIKeo-heI4AhYJ-72" value="" style="endArrow=none;html=1;rounded=0;" edge="1" parent="1" source="LVwt1XQIKeo-heI4AhYJ-70" target="V0jLRe1Iar0bfor6HaaD-8">
          <mxGeometry width="50" height="50" relative="1" as="geometry">
            <mxPoint x="-60" y="267.95500000000004" as="sourcePoint" />
            <mxPoint x="10.710678118654755" y="217.955" as="targetPoint" />
          </mxGeometry>
        </mxCell>
        <mxCell id="LVwt1XQIKeo-heI4AhYJ-73" value="" style="endArrow=none;html=1;rounded=0;" edge="1" parent="1" source="V0jLRe1Iar0bfor6HaaD-8" target="LVwt1XQIKeo-heI4AhYJ-69">
          <mxGeometry width="50" height="50" relative="1" as="geometry">
            <mxPoint x="80" y="180" as="sourcePoint" />
            <mxPoint x="130" y="130" as="targetPoint" />
          </mxGeometry>
        </mxCell>
        <mxCell id="5lizbr5pHaU8bW4rwPdO-81" value="" style="endArrow=none;html=1;rounded=0;exitX=0.5;exitY=0;exitDx=0;exitDy=0;" edge="1" parent="1" source="ytcm5A7RizO1AG_LOwBd-18" target="5lizbr5pHaU8bW4rwPdO-82">
          <mxGeometry width="50" height="50" relative="1" as="geometry">
            <mxPoint x="950" y="630" as="sourcePoint" />
            <mxPoint x="810" y="630" as="targetPoint" />
          </mxGeometry>
        </mxCell>
        <mxCell id="5lizbr5pHaU8bW4rwPdO-82" value="filedDate" style="ellipse;whiteSpace=wrap;html=1;" vertex="1" parent="1">
          <mxGeometry x="780" y="600.62" width="60" height="30" as="geometry" />
        </mxCell>
        <mxCell id="LVwt1XQIKeo-heI4AhYJ-74" value="OrderQty" style="ellipse;whiteSpace=wrap;html=1;" vertex="1" parent="1">
          <mxGeometry x="462.5" y="675.62" width="77.5" height="34" as="geometry" />
        </mxCell>
        <mxCell id="LVwt1XQIKeo-heI4AhYJ-75" value="" style="endArrow=none;html=1;rounded=0;" edge="1" parent="1" source="ytcm5A7RizO1AG_LOwBd-8" target="LVwt1XQIKeo-heI4AhYJ-74">
          <mxGeometry width="50" height="50" relative="1" as="geometry">
            <mxPoint x="420" y="770" as="sourcePoint" />
            <mxPoint x="470" y="720" as="targetPoint" />
          </mxGeometry>
        </mxCell>
        <mxCell id="5lizbr5pHaU8bW4rwPdO-83" value="" style="endArrow=none;html=1;rounded=0;exitX=0.5;exitY=0;exitDx=0;exitDy=0;" edge="1" parent="1" source="dsaff5UCi93PaBDCJ_9--11" target="5lizbr5pHaU8bW4rwPdO-84">
          <mxGeometry width="50" height="50" relative="1" as="geometry">
            <mxPoint x="820" y="120" as="sourcePoint" />
            <mxPoint x="710" y="-120" as="targetPoint" />
          </mxGeometry>
        </mxCell>
        <mxCell id="LVwt1XQIKeo-heI4AhYJ-76" value="Duration" style="ellipse;whiteSpace=wrap;html=1;" vertex="1" parent="1">
          <mxGeometry x="369.72" y="505.62" width="70" height="26.88" as="geometry" />
        </mxCell>
        <mxCell id="5lizbr5pHaU8bW4rwPdO-84" value="Date" style="ellipse;whiteSpace=wrap;html=1;" vertex="1" parent="1">
          <mxGeometry x="710" y="-120" width="71.25" height="20" as="geometry" />
        </mxCell>
        <mxCell id="LVwt1XQIKeo-heI4AhYJ-77" value="" style="endArrow=none;html=1;rounded=0;" edge="1" parent="1" source="LVwt1XQIKeo-heI4AhYJ-76" target="gUjhPtSgeOavMeUeWidY-11">
          <mxGeometry width="50" height="50" relative="1" as="geometry">
            <mxPoint x="440" y="560" as="sourcePoint" />
            <mxPoint x="490" y="510" as="targetPoint" />
          </mxGeometry>
        </mxCell>
        <mxCell id="5lizbr5pHaU8bW4rwPdO-85" value="" style="endArrow=none;html=1;rounded=0;exitX=0.5;exitY=0;exitDx=0;exitDy=0;" edge="1" parent="1" source="gUjhPtSgeOavMeUeWidY-16" target="5lizbr5pHaU8bW4rwPdO-86">
          <mxGeometry width="50" height="50" relative="1" as="geometry">
            <mxPoint x="640" y="400" as="sourcePoint" />
            <mxPoint x="580" y="330" as="targetPoint" />
          </mxGeometry>
        </mxCell>
        <mxCell id="5lizbr5pHaU8bW4rwPdO-86" value="date_of_certification" style="ellipse;whiteSpace=wrap;html=1;" vertex="1" parent="1">
          <mxGeometry x="520" y="301.87" width="120" height="30" as="geometry" />
        </mxCell>
        <mxCell id="LVwt1XQIKeo-heI4AhYJ-79" value="primaryLocation?" style="ellipse;whiteSpace=wrap;html=1;" vertex="1" parent="1">
          <mxGeometry x="1386" y="757" width="114" height="43" as="geometry" />
        </mxCell>
        <mxCell id="LVwt1XQIKeo-heI4AhYJ-80" value="" style="endArrow=none;html=1;rounded=0;" edge="1" parent="1" source="6mL3hcfkqaH-60hYp9Ra-43" target="LVwt1XQIKeo-heI4AhYJ-79">
          <mxGeometry width="50" height="50" relative="1" as="geometry">
            <mxPoint x="1390" y="860" as="sourcePoint" />
            <mxPoint x="1440" y="810" as="targetPoint" />
          </mxGeometry>
        </mxCell>
        <mxCell id="kYHCEOUDqtdPkegF-jPj-1" value="ClientImportance" style="ellipse;whiteSpace=wrap;html=1;" vertex="1" parent="1">
          <mxGeometry x="1350" y="355.62" width="100" height="44.38" as="geometry" />
        </mxCell>
        <mxCell id="kYHCEOUDqtdPkegF-jPj-4" value="" style="endArrow=none;html=1;rounded=0;entryX=0.5;entryY=0;entryDx=0;entryDy=0;exitX=1;exitY=0.75;exitDx=0;exitDy=0;" edge="1" parent="1" source="V0jLRe1Iar0bfor6HaaD-11" target="kYHCEOUDqtdPkegF-jPj-1">
          <mxGeometry width="50" height="50" relative="1" as="geometry">
            <mxPoint x="1356" y="341" as="sourcePoint" />
            <mxPoint x="1382" y="339" as="targetPoint" />
            <Array as="points">
              <mxPoint x="1370" y="350" />
            </Array>
          </mxGeometry>
        </mxCell>
        <mxCell id="84KrDqoAUdiJz-IKH-ep-2" value="" style="endArrow=none;dashed=1;html=1;dashPattern=1 3;strokeWidth=2;rounded=0;" edge="1" parent="1">
          <mxGeometry width="50" height="50" relative="1" as="geometry">
            <mxPoint x="68.77" y="878.27" as="sourcePoint" />
            <mxPoint x="111.23" y="878.27" as="targetPoint" />
          </mxGeometry>
        </mxCell>
        <mxCell id="84KrDqoAUdiJz-IKH-ep-3" value="" style="endArrow=none;dashed=1;html=1;dashPattern=1 3;strokeWidth=2;rounded=0;" edge="1" parent="1">
          <mxGeometry width="50" height="50" relative="1" as="geometry">
            <mxPoint x="546.27" y="1017.5" as="sourcePoint" />
            <mxPoint x="588.73" y="1017.5" as="targetPoint" />
          </mxGeometry>
        </mxCell>
      </root>
    </mxGraphModel>
  </diagram>
</mxfile>
